<?xml version="1.0" encoding="utf-8"?>
<!-- Generator: Adobe Illustrator 20.0.0, SVG Export Plug-In . SVG Version: 6.00 Build 0)  -->
<!DOCTYPE svg PUBLIC "-//W3C//DTD SVG 1.1//EN" "http://www.w3.org/Graphics/SVG/1.1/DTD/svg11.dtd">
<svg version="1.1" id="Layer_1" xmlns="http://www.w3.org/2000/svg" xmlns:xlink="http://www.w3.org/1999/xlink" x="0px" y="0px"
	 viewBox="0 0 248.467 57.523" enable-background="new 0 0 248.467 57.523" xml:space="preserve">
<g id="CREATED">
	<path fill="#FFFFFF" d="M59.756,21.42c-6.188,0-10.863-4.592-10.863-10.641C48.893,4.592,53.456,0,59.616,0
		c4.284,0,7.924,2.184,9.52,5.739h-2.323c-1.765-2.771-4.2-3.836-7.112-3.836c-4.928,0-8.708,3.809-8.708,8.792
		c0,4.845,3.948,8.82,8.736,8.82c3.023,0,5.012-1.147,7.195-3.892h2.296C67.148,19.46,63.956,21.42,59.756,21.42z"/>
	<path fill="#FFFFFF" d="M74.26,12.124v8.932h-2.072V5.739h2.072v2.185c0.812-1.68,2.128-2.437,4.34-2.548V7.42
		C75.716,7.7,74.26,9.268,74.26,12.124z"/>
	<path fill="#FFFFFF" d="M81.26,14.084c0.168,3.023,2.828,5.432,5.964,5.432c2.324,0,4.48-1.4,5.348-3.5h2.156
		c-0.979,2.912-3.976,5.404-7.448,5.404c-4.535,0-8.092-3.557-8.092-8.092c0-4.452,3.5-7.952,7.952-7.952
		c4.536,0,7.98,3.275,7.98,8.708H81.26z M87.111,7.279c-2.912,0-5.235,1.988-5.796,4.929h11.732
		C92.348,9.155,90.08,7.279,87.111,7.279z"/>
	<path fill="#FFFFFF" d="M111.5,21.056v-2.688c-1.624,2.184-3.304,3.052-5.908,3.052c-4.704,0-8.204-3.416-8.204-7.98
		c0-4.592,3.473-8.063,8.064-8.063c2.66,0,4.536,0.952,6.048,3.08V5.739h2.072v15.316H111.5z M105.508,7.279
		c-3.332,0-6.02,2.688-6.02,6.021c0,3.5,2.659,6.216,6.132,6.216c3.304,0,5.88-2.716,5.88-6.188
		C111.5,9.912,108.868,7.279,105.508,7.279z"/>
	<path fill="#FFFFFF" d="M121.048,7.616v13.439h-2.072V7.616h-3.304V5.739h3.304V0.363h2.072v5.376h3.444v1.877H121.048z"/>
	<path fill="#FFFFFF" d="M127.375,14.084c0.168,3.023,2.828,5.432,5.964,5.432c2.324,0,4.48-1.4,5.348-3.5h2.156
		c-0.979,2.912-3.976,5.404-7.448,5.404c-4.535,0-8.092-3.557-8.092-8.092c0-4.452,3.5-7.952,7.952-7.952
		c4.536,0,7.98,3.275,7.98,8.708H127.375z M133.227,7.279c-2.912,0-5.235,1.988-5.796,4.929h11.732
		C138.463,9.155,136.195,7.279,133.227,7.279z"/>
	<path fill="#FFFFFF" d="M157.671,21.056v-2.772c-1.54,2.213-3.275,3.137-5.824,3.137c-4.731,0-8.344-3.473-8.344-8.008
		c0-4.564,3.528-8.036,8.148-8.036c2.408,0,4.508,0.979,6.02,2.8V0.363h2.072v20.692H157.671z M151.595,7.279
		c-3.332,0-5.991,2.688-5.991,6.049c0,3.5,2.688,6.188,6.188,6.188c3.276,0,5.964-2.8,5.964-6.16
		C157.755,9.996,154.983,7.279,151.595,7.279z"/>
	<path fill="#FFFFFF" d="M176.515,21.056h-5.124V0.363h4.844c5.04,0,7.084,1.82,7.084,5.376c0,2.045-0.7,3.389-2.296,4.284
		c2.408,0.98,3.472,2.576,3.472,5.097C184.494,19.208,182.255,21.056,176.515,21.056z M175.955,2.239h-2.492v7.028h2.52
		c3.893,0,5.236-0.896,5.236-3.5C181.219,3.248,180.127,2.239,175.955,2.239z M175.927,11.144h-2.464v8.036h2.828
		c4.228,0,6.104-0.952,6.104-3.948C182.395,11.368,179.595,11.144,175.927,11.144z"/>
	<path fill="#FFFFFF" d="M191.243,26.432h-2.212l2.491-5.88l-5.936-14.812h2.268l4.845,12.208l5.18-12.208h2.212L191.243,26.432z"/>
</g>
<g id="KYLE-CONRAD">
	<path fill="#FFFFFF" d="M13.175,57.056L4.932,45.357v11.698H0V30.455h4.932v11.482l8.243-11.482h5.939L9.107,43.521l10.007,13.534
		H13.175z"/>
	<path fill="#FFFFFF" d="M34.198,47.229v9.827h-4.932v-9.827l-8.746-16.773h5.327l5.903,12.238l5.867-12.238h5.327L34.198,47.229z"
		/>
	<path fill="#FFFFFF" d="M45.72,57.056V30.455h4.932V52.34h8.135v4.716H45.72z"/>
	<path fill="#FFFFFF" d="M62.1,57.056V30.455h14.291v4.716h-9.359v6.263h8.963v4.716h-8.963v6.19h9.359v4.716H62.1z"/>
	<path fill="#FFFFFF" d="M104.613,57.523c-7.775,0-14.002-6.191-14.002-13.858c0-7.522,6.155-13.678,13.678-13.678
		c5.472,0,10.259,2.951,12.599,8.099h-5.507c-1.8-2.34-3.888-3.348-6.983-3.348c-5.075,0-8.819,3.96-8.819,8.963
		c0,4.968,4.032,9.071,8.928,9.071c2.556,0,4.427-0.864,6.587-3.132h5.795C114.8,54.5,110.049,57.523,104.613,57.523z"/>
	<path fill="#FFFFFF" d="M133.233,57.523c-7.811,0-14.002-6.083-14.002-13.75c0-7.775,6.119-13.786,14.038-13.786
		c7.595,0,13.678,6.155,13.678,13.75C146.947,51.513,140.973,57.523,133.233,57.523z M133.197,34.738
		c-5.111,0-8.999,3.888-8.999,9.035c0,5.039,3.96,8.999,8.999,8.999c5.04,0,8.783-3.852,8.783-8.963S138.129,34.738,133.197,34.738z
		"/>
	<path fill="#FFFFFF" d="M167.434,57.056l-11.123-19.329v19.329h-4.932V30.455h5.615l11.015,19.365V30.455h4.932v26.601H167.434z"/>
	<path fill="#FFFFFF" d="M190.474,57.056l-6.983-10.187v10.187h-4.932V30.455h7.667c3.636,0,5.544,0.504,7.271,1.979
		c1.836,1.548,2.808,3.852,2.808,6.552c0,4.139-2.159,7.055-6.947,8.242l7.199,9.827H190.474z M185.687,35.171h-2.196v7.99h2.412
		c3.815,0,5.436-1.224,5.436-4.031C191.338,36.754,190.365,35.171,185.687,35.171z"/>
	<path fill="#FFFFFF" d="M218.479,57.056l-2.844-6.875h-9.467l-2.951,6.875h-5.436l11.087-26.601h3.888l11.158,26.601H218.479z
		 M210.812,37.402l-2.844,8.062h5.688L210.812,37.402z"/>
	<path fill="#FFFFFF" d="M241.952,55.58c-2.16,1.08-4.571,1.476-8.604,1.476h-6.191V30.455h6.084c4.175,0,7.343,0.647,9.431,1.907
		c3.707,2.232,5.795,6.407,5.795,11.447C248.467,49.173,246.056,53.564,241.952,55.58z M239.432,36.25
		c-1.547-0.792-3.239-1.079-6.371-1.079h-0.972V52.34h1.08c2.951,0,5.003-0.359,6.479-1.188c2.375-1.296,3.852-4.14,3.852-7.343
		C243.5,40.39,241.952,37.546,239.432,36.25z"/>
</g>
</svg>
