<?xml version="1.0" encoding="utf-8"?>
<!DOCTYPE svg PUBLIC "-//W3C//DTD SVG 1.1//EN" "http://www.w3.org/Graphics/SVG/1.1/DTD/svg11.dtd">
<svg version="1.1" id="Layer_1" xmlns="http://www.w3.org/2000/svg" xmlns:xlink="http://www.w3.org/1999/xlink" x="0px" y="0px" viewBox="0 0 380.8 486.5" enable-background="new 0 0 380.8 486.5" xml:space="preserve">

<g id="kyleconrad">
	<path d="M7.2,12.3l8.7-11.4h8.9L13.8,14l12,14.5h-9.3l-9.3-12H7.2v12H0L0,0.9h7.2L7.2,12.3L7.2,12.3z"/>
	<path d="M45.8,15.3L35.7,0.9h8.6l5.2,7.5l5.2-7.5h8.6L53,15.3v13.2h-7.2V15.3z"/>
	<path d="M83,0.9v21.5h8.6v6.1H75.8V0.9H83z"/>
	<path d="M121.8,7h-8.5v4.6h8.1v6.1h-8.1v4.8h8.5v6.1h-15.7V0.9h15.7V7z"/>
	<path d="M180.4,1.6v8.6c-0.7-1-1.7-1.7-2.8-2.2c-1.1-0.5-2.3-0.8-3.5-0.8c-2.2,0-3.9,0.7-5.3,2.2c-1.4,1.5-2,3.3-2,5.4
		c0,2.2,0.7,4,2.1,5.4c1.4,1.4,3.2,2.1,5.4,2.1c1.2,0,2.3-0.3,3.4-0.8c1.1-0.5,2-1.2,2.8-2.1v8.6c-2.8,0.9-4.9,1.3-6.3,1.3
		c-3.9,0-7.4-1.4-10.4-4.1c-3-2.7-4.4-6.1-4.4-10.4c0-4,1.4-7.3,4.1-10.1c1.4-1.4,3-2.5,4.8-3.3c1.9-0.8,3.7-1.2,5.7-1.2
		C176,0.2,178.1,0.6,180.4,1.6z"/>
	<path d="M202.2,1.8c2.3-1.2,4.8-1.8,7.5-1.8c2.7,0,5.1,0.6,7.5,1.8c2.3,1.2,4.2,2.9,5.6,5.1c1.4,2.2,2.2,4.6,2.2,7.4
		c0,4.5-1.4,8.1-4.3,11c-2.9,2.8-6.5,4.3-11,4.3c-4.4,0-8.1-1.4-11-4.3c-2.9-2.8-4.3-6.5-4.3-11c0-2.7,0.7-5.2,2.2-7.4
		C198,4.6,199.9,3,202.2,1.8z M215.1,9.1c-1.5-1.5-3.4-2.2-5.5-2.2c-2.1,0-4,0.7-5.5,2.2c-1.5,1.5-2.3,3.2-2.3,5.1
		c0,2.3,0.8,4.3,2.3,5.9c1.5,1.6,3.4,2.4,5.5,2.4c2.2,0,4-0.8,5.5-2.4s2.3-3.5,2.3-5.9C217.4,12.3,216.7,10.6,215.1,9.1z"/>
	<path d="M238,28.5V0.9h7.2l13.1,16.9h0.1V0.9h7.2v27.6h-7.2l-13.1-16.9h-0.1v16.9H238z"/>
	<path d="M295.5,17.2l8.7,11.3h-8.9l-6.8-10.6h-0.1v10.6h-7.2V0.9h10.7c2.9,0,5.2,0.7,7,2.1c1.8,1.4,2.6,3.5,2.6,6.4
		c0,2-0.5,3.7-1.6,5.1C298.9,16,297.4,16.9,295.5,17.2z M288.4,6.4v6.9h0.7c3.3,0,5-1.1,5-3.4s-1.7-3.4-5-3.4H288.4z"/>
	<path d="M334,23.7h-9.9l-1.9,4.8h-7.6l10.6-27.6h7.8l10.4,27.6h-7.6L334,23.7z M332,18.2l-2.9-8.8H329l-3,8.8H332z"/>
	<path d="M356.6,28.5V0.9h10.2c3.9,0,7.2,1.3,9.9,4c2.7,2.7,4.1,5.9,4.1,9.8s-1.4,7.1-4.1,9.8c-2.7,2.7-6,4-9.9,4H356.6z M363.8,7
		v15.4h1.6c2.3,0,4.2-0.6,5.7-1.9c1.5-1.3,2.2-3.2,2.2-5.8c0-2.4-0.7-4.3-2.2-5.7c-1.4-1.4-3.3-2-5.7-2H363.8z"/>
</g>

<g id="designcode">
	<g>
		<path d="M0,478.2l0-24h8.8c3.3,0,6.2,1.2,8.6,3.5s3.6,5.2,3.6,8.5c0,3.4-1.2,6.2-3.6,8.5s-5.3,3.5-8.6,3.5H0z M6.2,459.5v13.4h1.4
			c2,0,3.6-0.6,4.9-1.7c1.3-1.1,2-2.8,2-5c0-2.1-0.6-3.7-1.9-4.9c-1.3-1.2-2.9-1.8-5-1.8H6.2z"/>
		<path d="M47.1,459.5h-7.4v4h7v5.3h-7v4.1h7.4v5.3H33.5v-24h13.6V459.5z"/>
		<path d="M77.5,455.5l-2.5,4.8c-1.3-1.1-2.7-1.6-4.1-1.6c-0.7,0-1.3,0.2-1.8,0.5c-0.6,0.4-0.8,0.8-0.8,1.5c0,0.4,0.2,0.8,0.5,1.1
			c0.3,0.3,0.7,0.6,1,0.7c0.3,0.1,0.7,0.3,1.3,0.4l1.6,0.5c1.9,0.6,3.3,1.3,4.4,2.3c1,1,1.6,2.4,1.6,4.2c0,2.9-0.8,5.1-2.5,6.5
			c-1.8,1.5-4.1,2.3-6.8,2.3c-3,0-5.8-0.9-8.4-2.7l2.7-5c1.9,1.7,3.7,2.5,5.5,2.5c0.8,0,1.5-0.2,2.1-0.6c0.6-0.4,0.9-1,0.9-1.8
			c0-1.1-1-1.9-3-2.5c-0.1,0-0.3-0.1-0.8-0.2c-1.1-0.3-2-0.6-2.7-0.9c-0.7-0.3-1.3-0.7-2-1.2c-0.7-0.5-1.1-1.1-1.4-1.9
			c-0.3-0.8-0.4-1.7-0.4-2.8c0-2.4,0.8-4.4,2.3-5.8c1.5-1.5,3.5-2.2,5.9-2.2c1.2,0,2.5,0.2,3.9,0.5
			C75.2,454.4,76.4,454.9,77.5,455.5z"/>
		<path d="M98.5,454.2v24h-6.2v-24H98.5z"/>
		<path d="M123.7,464.8h12.4c0,2.1-0.2,3.8-0.5,5.3c-0.3,1.4-0.9,2.8-1.9,4.2c-2.2,3.1-5.5,4.7-9.9,4.7c-3.8,0-6.8-1.2-9.2-3.5
			c-2.4-2.3-3.6-5.4-3.6-9.1c0-3.9,1.2-7,3.6-9.4c2.4-2.4,5.5-3.5,9.4-3.5c2.5,0,4.7,0.6,6.5,1.7c1.8,1.1,3.3,2.8,4.3,5l-5.9,2.5
			c-0.4-1.2-1.1-2.1-2-2.8c-0.9-0.7-2-1-3.2-1c-1.9,0-3.5,0.8-4.6,2.3c-1.1,1.5-1.7,3.3-1.7,5.3c0,2,0.6,3.7,1.7,5.2
			s2.7,2.3,4.6,2.3c1.4,0,2.6-0.4,3.5-1.1c0.9-0.7,1.4-1.7,1.6-3.1h-5.1V464.8z"/>
		<path d="M147.1,478.2v-24h6.2l11.4,14.7h0.1v-14.7h6.2v24h-6.2l-11.4-14.7h-0.1v14.7H147.1z"/>
	</g>
	<g>
		<path d="M212.5,463.4c-0.4-0.9-0.8-1.7-1-2.3c-0.2-0.6-0.3-1.5-0.3-2.6c0-2.5,1.1-4.8,3.2-6.9c2.2-2.1,4.6-3.1,7.4-3.1
			c2,0,3.5,0.4,4.6,1.1c1.1,0.8,1.6,1.8,1.6,3.1c0,1.8-0.7,3.1-2,3.9c-1.3,0.8-2.7,1.6-4.3,2.3c0.6,0.7,1.3,1.5,2,2.4
			c0.7,0.9,1.5,1.9,2.2,2.9c0.6-1.4,1.5-2.6,2.8-3.6c1.3-1,2.9-1.5,4.6-1.5c1.5,0,2.8,0.4,3.8,1.3c1,0.9,1.5,2,1.5,3.3
			c0,1.3-0.4,2.4-1.3,3.3c-0.9,0.9-2,1.3-3.3,1.3c-1.3,0-2.4-0.3-3.3-1c-0.9-0.7-1.3-1.6-1.3-2.8c0-0.9,0.3-1.7,0.8-2.5
			c0.3-0.3,0.5-0.6,0.7-0.8c0.2-0.2,0.3-0.4,0.3-0.6c0-0.2-0.1-0.3-0.3-0.3c-0.6,0-1.5,0.5-2.6,1.4c-1.1,1-1.7,2-2,3.2
			c1.4,2.3,2.3,4,2.7,5.1c0.4,1,0.7,2.4,0.7,4.2c0,3.4-1.2,6.3-3.6,8.7c-2.4,2.4-5.3,3.6-8.7,3.6c-0.6,0-1.3-0.1-2-0.2
			c-0.7-0.2-1.4-0.4-2-0.8l0.2-0.5c0.5,0.3,1.1,0.5,1.8,0.6c0.7,0.1,1.4,0.2,2,0.2c1.5,0,2.7-0.4,3.7-1.3c1-0.9,1.4-2.1,1.4-3.7
			c0-1.2-0.2-2.3-0.6-3.4c-0.4-1.1-1.1-2.2-2-3.5c-0.8,1.6-2,3-3.7,4.2c-1.7,1.2-3.6,1.8-5.8,1.8c-1.9,0-3.6-0.6-5-1.9
			c-1.4-1.3-2.2-2.9-2.2-4.9c0-2.3,0.6-4,1.8-5.4C206.6,466.4,209,465,212.5,463.4z M219.9,473.5c-2-2.5-3.5-4.5-4.7-6.1
			c-1.2-1.5-2-2.7-2.4-3.5c-0.6,0.3-1.2,0.8-1.5,1.3c-0.4,0.5-0.6,1.1-0.6,1.8c0,1.8,0.7,3.5,2.2,5.2c1.5,1.7,2.9,2.5,4.3,2.5
			c0.7,0,1.2-0.1,1.6-0.3C219.2,474.3,219.6,474,219.9,473.5z M221.6,458.4c1.1-0.6,1.9-1.2,2.5-2.1c0.6-0.8,0.9-1.9,0.9-3.1
			c0-1.2-0.2-2.2-0.7-2.9c-0.5-0.8-1.4-1.1-2.7-1.1c-0.8,0-1.7,0.3-2.5,0.8c-0.8,0.5-1.2,1.4-1.2,2.5c0,0.9,0.4,1.9,1.2,3
			C219.8,456.4,220.7,457.4,221.6,458.4z"/>
	</g>
	<g>
		<path d="M282.5,454.7v7.5c-0.6-0.8-1.4-1.5-2.4-2c-1-0.5-2-0.7-3.1-0.7c-1.9,0-3.4,0.6-4.6,1.9c-1.2,1.3-1.8,2.9-1.8,4.7
			c0,1.9,0.6,3.5,1.8,4.7c1.2,1.2,2.8,1.8,4.7,1.8c1,0,2-0.2,3-0.7c1-0.5,1.8-1.1,2.4-1.9v7.5c-2.4,0.7-4.3,1.1-5.5,1.1
			c-3.4,0-6.4-1.2-9-3.5c-2.6-2.3-3.8-5.3-3.8-9.1c0-3.4,1.2-6.4,3.5-8.8c1.2-1.2,2.6-2.2,4.2-2.8c1.6-0.7,3.3-1,4.9-1
			C278.7,453.5,280.6,453.9,282.5,454.7z"/>
		<path d="M301.5,454.9c2-1,4.2-1.5,6.5-1.5c2.3,0,4.5,0.5,6.5,1.5c2,1,3.6,2.5,4.9,4.4c1.3,1.9,1.9,4,1.9,6.4
			c0,3.9-1.2,7.1-3.7,9.5c-2.5,2.5-5.7,3.7-9.5,3.7c-3.9,0-7-1.2-9.5-3.7c-2.5-2.5-3.7-5.6-3.7-9.5c0-2.4,0.6-4.5,1.9-6.4
			C297.8,457.4,299.5,455.9,301.5,454.9z M312.7,461.3c-1.3-1.3-2.9-1.9-4.8-1.9c-1.8,0-3.4,0.6-4.8,1.9c-1.3,1.3-2,2.7-2,4.4
			c0,2,0.7,3.7,2,5.1c1.3,1.4,2.9,2.1,4.8,2.1c1.9,0,3.5-0.7,4.8-2.1c1.3-1.4,2-3.1,2-5.1C314.7,464.1,314.1,462.6,312.7,461.3z"/>
		<path d="M333.7,478.2v-24h8.8c3.3,0,6.2,1.2,8.6,3.5c2.4,2.3,3.6,5.2,3.6,8.5c0,3.4-1.2,6.2-3.6,8.5c-2.4,2.3-5.3,3.5-8.6,3.5
			H333.7z M339.9,459.5v13.4h1.4c2,0,3.6-0.6,4.9-1.7c1.3-1.1,2-2.8,2-5c0-2.1-0.6-3.7-1.9-4.9c-1.3-1.2-2.9-1.8-5-1.8H339.9z"/>
		<path d="M380.8,459.5h-7.4v4h7v5.3h-7v4.1h7.4v5.3h-13.6v-24h13.6V459.5z"/>
	</g>
</g>

<path id="outline" d="M374.9,390.7L196,80.8c-1.2-2-3.3-3.2-5.6-3.2s-4.5,1.2-5.6,3.2L33.1,343.5c-0.4,0.3-0.7,0.7-1,1.2
	c-0.4,0.6-0.7,1.3-0.8,1.9L5.6,391.1c-1.2,2-1.2,4.5,0,6.5c1.2,2,3.3,3.2,5.6,3.2h96.6c0,0,0,0,0,0c0,0,0,0,0,0h165.4c0,0,0,0,0,0
	c0,0,0,0,0,0h96.2c0,0,0,0,0,0c3.6,0,6.5-2.9,6.5-6.5C376.1,393,375.6,391.7,374.9,390.7z M190.4,97L334.1,346
	c-11.2,7.4-39.4,26-62.8,41.9H109.9c-23.1-15.6-51.6-34.1-63.3-41.6L190.4,97z M40,357.5c9.3,6,28,18.1,46.5,30.4h-64L40,357.5z
	 M294.6,387.8c18.5-12.4,37.1-24.7,46-30.6l17.7,30.6H294.6z"/>

<path id="eyebrow" d="M350.3,281c-1.9,0-3.7-0.8-5-2.4l0,0c-0.2-0.2-15.4-18.6-42-36.7c-24.4-16.6-63.6-36.4-112-36.4
	c-93.2,0-153.4,72.4-154,73.1c-2.3,2.8-6.4,3.2-9.1,0.9c-2.8-2.3-3.2-6.4-0.9-9.1c0.7-0.8,16.3-19.8,44.4-39
	c25.9-17.7,67.8-38.9,119.7-38.9s93.8,21.1,119.7,38.9c28,19.2,43.7,38.2,44.4,39c2.3,2.8,1.9,6.9-0.9,9.1
	C353.2,280.6,351.7,281,350.3,281z"/>

<g id="eyelid1">
	<polygon fill="#FFFFFF" points="190.4,84 312.2,298.7 284.5,272.1 260.1,255.4 221.2,239.9 179.8,236.2 127.7,251.5 78.5,283.8
		"/>
	<path fill="none" stroke="#000000" stroke-width="13" stroke-linecap="round" stroke-miterlimit="10" d="M319.5,308
		c0,0-50.2-71.8-129.4-71.8S60.8,308,60.8,308"/>
</g>

<g id="eyelid2" display="none">
	<polygon display="inline" fill="#FFFFFF" points="190,83.7 311.8,298.4 284.2,283 258,270.9 224.5,261.5 180.5,258.6 126.2,269.2
		68.7,297.3 	"/>
	<path display="inline" fill="none" stroke="#000000" stroke-width="13" stroke-linecap="round" stroke-miterlimit="10" d="
		M319.2,307.7c0,0-50.2-49.3-129.4-49.3S61.7,308,61.7,308"/>
</g>

<g id="eyelid3" display="none">
	<polygon display="inline" fill="#FFFFFF" points="190,83.7 311.8,298.4 284.2,292.7 260.3,285.9 223,277.7 174.7,277.7
		126.1,284.3 68.7,303.4 	"/>
	<path display="inline" fill="none" stroke="#000000" stroke-width="13" stroke-linecap="round" stroke-miterlimit="10" d="
		M319.2,307.7c0,0-50.2-26.6-129.4-26.6S62.5,307.7,62.5,307.7"/>
</g>

<g id="eyelid4" display="none">
	<polygon display="inline" fill="#FFFFFF" points="319,307.5 190.1,83.7 60,307.5 97,307.5 158.3,307.5 191,307.5 244.8,307.5
		291.7,307.5 	"/>
	<path display="inline" fill="none" stroke="#000000" stroke-width="13" stroke-linecap="round" stroke-miterlimit="10" d="
		M319.3,307.8c0,0-49.9,0-128.4,0s-128.6,0-128.6,0"/>
</g>

<g id="eyelid5" display="none">
	<polygon display="inline" fill="#FFFFFF" points="191,83.7 320.2,310.2 303.4,314.9 271.6,324.7 234.7,331.6 180.7,334.2
		112.6,325.3 65,307.7 	"/>
	<path display="inline" fill="none" stroke="#000000" stroke-width="13" stroke-linecap="round" stroke-miterlimit="10" d="
		M319,308.2c0,0-49,26.1-128.2,26.1S61.5,307.7,61.5,307.7"/>
</g>

<g id="eyelid6" display="none">
	<polygon display="inline" fill="#FFFFFF" points="190,83.7 319.2,307.7 293.1,330.9 265.6,347.8 231.7,360.9 172,366.5
		117.5,349.5 60.5,307.7 	"/>
	<path display="inline" fill="none" stroke="#000000" stroke-width="13" stroke-linecap="round" stroke-miterlimit="10" d="
		M319.2,307.7c0,0-50.2,58.8-129.4,58.8S61.3,308.6,61.3,308.6"/>
</g>

<g id="pupil">
	<path d="M189.9,317c-14.4,0-26.2-11.7-26.2-26.2s11.7-26.2,26.2-26.2s26.2,11.7,26.2,26.2S204.3,317,189.9,317z M189.9,277.7
		c-7.3,0-13.2,5.9-13.2,13.2s5.9,13.2,13.2,13.2s13.2-5.9,13.2-13.2S197.1,277.7,189.9,277.7z"/>
	<path d="M189.9,351.2c-33.3,0-60.4-27.1-60.4-60.4c0-33.3,27.1-60.4,60.4-60.4c33.3,0,60.4,27.1,60.4,60.4
		C250.3,324.2,223.2,351.2,189.9,351.2z M189.9,243.5c-26.1,0-47.4,21.2-47.4,47.4s21.2,47.4,47.4,47.4s47.4-21.2,47.4-47.4
		S216,243.5,189.9,243.5z"/>
</g>

<path id="lowereye" d="M191.3,373.3l-1.2,0c-10.4-0.2-35.3-3-62.6-23.4c-26.8-20-62.2-46.8-62.5-47.1c-2.9-2.2-3.4-6.2-1.3-9.1
	c2.2-2.9,6.2-3.4,9.1-1.2c0.4,0.3,35.6,27,62.4,47.1c24.6,18.4,46.5,20.7,55.2,20.8c8.8-0.1,30.6-2.4,55.2-20.8
	c26.7-19.9,61.9-48.7,62.2-49c2.8-2.3,6.9-1.9,9.1,0.9c2.3,2.8,1.9,6.9-0.9,9.1c-0.4,0.3-35.7,29.2-62.5,49.3
	C226.4,370.3,201.3,373.1,191.3,373.3L191.3,373.3z"/>
</svg>
