<?xml version="1.0" encoding="utf-8"?>
<!DOCTYPE svg PUBLIC "-//W3C//DTD SVG 1.1//EN" "http://www.w3.org/Graphics/SVG/1.1/DTD/svg11.dtd">
<?xml-stylesheet type="text/css" href="../css/style.css" ?>

<svg version="1.1" id="Layer_1" xmlns="http://www.w3.org/2000/svg" xmlns:xlink="http://www.w3.org/1999/xlink" x="0px" y="0px"
	 viewBox="0 0 380.769 486.521" enable-background="new 0 0 380.769 486.521" xml:space="preserve">
	<script xmlns="http://www.w3.org/2000/svg" type="text/ecmascript" xmlns:xlink="http://www.w3.org/1999/xlink" xlink:href="../js/smil.user.js"/>

	<g id="pupil">
		<path d="M189.889,317.038c-14.427,0-26.164-11.737-26.164-26.164s11.737-26.164,26.164-26.164s26.164,11.737,26.164,26.164
			S204.316,317.038,189.889,317.038z M189.889,277.71c-7.259,0-13.164,5.905-13.164,13.164s5.905,13.164,13.164,13.164
			s13.164-5.905,13.164-13.164S197.148,277.71,189.889,277.71z"/>
		<path d="M189.889,351.236c-33.284,0-60.362-27.079-60.362-60.362c0-33.284,27.079-60.363,60.362-60.363
			c33.284,0,60.363,27.079,60.363,60.363C250.252,324.158,223.173,351.236,189.889,351.236z M189.889,243.511
			c-26.116,0-47.362,21.247-47.362,47.363s21.247,47.362,47.362,47.362s47.363-21.247,47.363-47.362S216.005,243.511,189.889,243.511
			z"/>
	</g>

	<path id="lowereye" d="M191.343,373.315l-1.165-0.008c-10.395-0.168-35.274-2.989-62.564-23.398
		c-26.798-20.042-62.161-46.848-62.515-47.116c-2.86-2.17-3.434-6.248-1.264-9.107c2.171-2.859,6.24-3.418,9.1-1.249
		c0.354,0.268,35.647,27.048,62.408,47.062c24.62,18.412,46.469,20.729,55.236,20.814c8.767-0.085,30.617-2.402,55.236-20.814
		c26.664-19.941,61.874-48.708,62.227-48.996c2.779-2.273,6.874-1.862,9.146,0.918c2.272,2.779,1.861,6.874-0.918,9.146
		c-0.354,0.29-35.656,29.23-62.547,49.341c-27.289,20.409-52.38,23.23-62.38,23.398V373.315z"/>

	<g id="eyelid">
		<path fill="white" d="M60.795,307.973L190.385,84.025l129.133,223.948c0,0-50.16-71.817-129.361-71.817
			S60.795,307.973,60.795,307.973z">
			<animate repeatCount="indefinite" dur="8s" begin="5s" calcMode="spline" keySplines="0.42 0.15 0.59 0.93;0.42 0.15 0.59 0.93;0.42 0.15 0.59 0.93" keyTimes="0; 0.02; 0.04; 1" attributeName="d" from="M60.795,307.973L190.385,84.025l129.133,223.948c0,0-50.16-71.817-129.361-71.817
			S60.795,307.973,60.795,307.973z" to="M60.795,307.973L190.385,84.025l129.133,223.948c0,0-50.16-71.817-129.361-71.817
			S60.795,307.973,60.795,307.973z" values="M60.795,307.973L190.385,84.025l129.133,223.948c0,0-50.16-71.817-129.361-71.817
			S60.795,307.973,60.795,307.973z;M61.327,308.643L190.041,83.71l129.133,223.948c0,0-50.16,58.842-129.361,58.842
			S61.327,308.643,61.327,308.643z;M60.795,307.973L190.385,84.025l129.133,223.948c0,0-50.16-71.817-129.361-71.817
			S60.795,307.973,60.795,307.973z;M60.795,307.973L190.385,84.025l129.133,223.948c0,0-50.16-71.817-129.361-71.817
			S60.795,307.973,60.795,307.973z"/>
		</path>
		<path fill="none" stroke="#1a1a1a" stroke-width="13" stroke-linecap="round" stroke-miterlimit="10" d="M319.517,307.973
			c0,0-50.16-71.817-129.361-71.817S60.795,307.973,60.795,307.973">
			<animate repeatCount="indefinite" dur="8s" begin="5s" calcMode="spline" keySplines="0.42 0.15 0.59 0.93;0.42 0.15 0.59 0.93;0.42 0.15 0.59 0.93" keyTimes="0; 0.02; 0.04; 1" attributeName="d" from="M319.517,307.973
			c0,0-50.16-71.817-129.361-71.817S60.795,307.973,60.795,307.973" to="M319.517,307.973
			c0,0-50.16-71.817-129.361-71.817S60.795,307.973,60.795,307.973" values="M319.517,307.973
			c0,0-50.16-71.817-129.361-71.817S60.795,307.973,60.795,307.973;M319.174,307.658c0,0-50.16,58.842-129.361,58.842S61.327,308.643,61.327,308.643;M319.517,307.973
			c0,0-50.16-71.817-129.361-71.817S60.795,307.973,60.795,307.973;M319.517,307.973
			c0,0-50.16-71.817-129.361-71.817S60.795,307.973,60.795,307.973"/>
		</path>
	</g>

	<path id="eyebrow" d="M350.251,281.042c-1.882,0-3.749-0.813-5.034-2.383l0,0c-0.15-0.184-15.387-18.602-42.005-36.737
		c-24.354-16.593-63.562-36.373-112.041-36.373c-93.232,0-153.445,72.375-154.042,73.106c-2.271,2.78-6.366,3.192-9.146,0.921
		c-2.78-2.271-3.192-6.366-0.921-9.146c0.654-0.8,16.335-19.818,44.38-38.999c25.934-17.738,67.758-38.882,119.73-38.882
		s93.795,21.144,119.729,38.882c28.045,19.181,43.726,38.199,44.38,38.999c2.271,2.78,1.859,6.875-0.921,9.146
		C353.152,280.562,351.697,281.042,350.251,281.042z"/>

	<path id="outline" d="M374.931,390.668L196.014,80.775c-1.161-2.011-3.307-3.25-5.629-3.25s-4.468,1.239-5.629,3.25L33.074,343.495
		c-0.352,0.342-0.674,0.723-0.951,1.154c-0.392,0.611-0.663,1.264-0.83,1.931L5.602,391.077c-1.161,2.011-1.161,4.489,0,6.5
		c1.161,2.011,3.307,3.25,5.629,3.25h96.611c0.011,0,0.022,0.002,0.034,0.002c0.014,0,0.027-0.002,0.041-0.002h165.425
		c0.003,0,0.005,0,0.008,0c0.002,0,0.004,0,0.007,0h96.181c0.006,0,0.012,0,0.02,0c3.59,0,6.5-2.91,6.5-6.5
		C376.058,392.97,375.642,391.71,374.931,390.668z M190.384,97.025l143.722,248.934c-11.191,7.371-39.433,26.026-62.761,41.868
		H109.871c-23.1-15.602-51.609-34.075-63.339-41.643L190.384,97.025z M40.025,357.456c9.257,5.974,27.982,18.108,46.465,30.371h-64
		L40.025,357.456z M294.585,387.827c18.521-12.432,37.073-24.687,46.033-30.59l17.661,30.59H294.585z"/>

	<g id="designcode">
		<g>
			<path d="M0.009,478.152l0-23.98h8.841c3.35,0,6.218,1.16,8.603,3.482s3.578,5.158,3.578,8.508c0,3.35-1.193,6.186-3.578,8.508
				s-5.253,3.483-8.603,3.483H0.009z M6.243,459.452v13.421h1.399c1.992,0,3.641-0.562,4.945-1.685
				c1.304-1.124,1.956-2.799,1.956-5.025c0-2.099-0.626-3.742-1.877-4.929c-1.251-1.187-2.905-1.781-4.961-1.781H6.243z"/>
			<path d="M47.11,459.452H39.7v4.007h7.028v5.279H39.7v4.135h7.41v5.279H33.467v-23.98H47.11V459.452z"/>
			<path d="M77.487,455.508l-2.481,4.834c-1.272-1.06-2.65-1.59-4.134-1.59c-0.658,0-1.267,0.18-1.829,0.541
				c-0.562,0.361-0.843,0.848-0.843,1.463c0,0.424,0.175,0.806,0.525,1.145c0.35,0.34,0.678,0.573,0.986,0.7
				c0.307,0.127,0.726,0.276,1.256,0.445l1.59,0.477c1.865,0.552,3.318,1.331,4.357,2.338c1.039,1.007,1.558,2.412,1.558,4.214
				c0,2.905-0.827,5.057-2.481,6.456c-1.781,1.505-4.05,2.258-6.806,2.258c-3.011,0-5.82-0.912-8.428-2.735l2.671-5.025
				c1.887,1.653,3.731,2.481,5.534,2.481c0.806,0,1.511-0.207,2.115-0.621c0.605-0.413,0.907-1.012,0.907-1.797
				c0-1.081-1.007-1.919-3.021-2.513c-0.063-0.021-0.318-0.096-0.763-0.223c-1.145-0.318-2.047-0.615-2.703-0.89
				c-0.658-0.276-1.315-0.663-1.972-1.161c-0.657-0.498-1.124-1.129-1.399-1.892c-0.276-0.763-0.414-1.706-0.414-2.831
				c0-2.417,0.774-4.362,2.322-5.836c1.547-1.473,3.53-2.21,5.947-2.21c1.208,0,2.496,0.18,3.864,0.541
				C75.213,454.437,76.427,454.915,77.487,455.508z"/>
			<path d="M98.547,454.172v23.98h-6.234v-23.98H98.547z"/>
			<path d="M123.703,464.763h12.372c-0.043,2.078-0.217,3.838-0.525,5.279c-0.308,1.443-0.949,2.842-1.924,4.198
				c-2.248,3.138-5.545,4.707-9.891,4.707c-3.775,0-6.849-1.172-9.223-3.515c-2.375-2.343-3.563-5.391-3.563-9.143
				c0-3.88,1.198-7.002,3.594-9.366c2.396-2.364,5.534-3.546,9.414-3.546c2.502,0,4.675,0.562,6.52,1.685
				c1.844,1.124,3.276,2.799,4.294,5.025l-5.916,2.481c-0.445-1.187-1.113-2.12-2.003-2.799c-0.891-0.679-1.951-1.018-3.18-1.018
				c-1.93,0-3.451,0.763-4.564,2.29c-1.113,1.527-1.67,3.287-1.67,5.279c0,1.994,0.567,3.743,1.701,5.248s2.677,2.258,4.627,2.258
				c1.399,0,2.555-0.361,3.467-1.081c0.911-0.721,1.431-1.75,1.558-3.085h-5.089V464.763z"/>
			<path d="M147.137,478.152v-23.98h6.234l11.418,14.661h0.063v-14.661h6.234v23.98h-6.234l-11.418-14.693h-0.063v14.693H147.137z"/>
		</g>
		<g>
			<path d="M210.51,463.398c-0.447-0.893-0.768-1.661-0.964-2.304c-0.196-0.642-0.293-1.508-0.293-2.597
				c0-2.541,1.077-4.845,3.233-6.912c2.156-2.066,4.633-3.1,7.433-3.1c1.96,0,3.486,0.377,4.578,1.131
				c1.092,0.754,1.638,1.774,1.638,3.058c0,1.759-0.661,3.058-1.983,3.896c-1.321,0.838-2.741,1.592-4.259,2.262
				c0.614,0.698,1.291,1.494,2.032,2.388c0.74,0.894,1.459,1.858,2.157,2.89c0.558-1.396,1.494-2.604,2.807-3.624
				c1.312-1.019,2.862-1.529,4.65-1.529c1.508,0,2.771,0.426,3.791,1.278c1.019,0.852,1.529,1.962,1.529,3.33
				c0,1.313-0.433,2.416-1.298,3.309c-0.866,0.894-1.955,1.34-3.267,1.34c-1.285,0-2.374-0.328-3.267-0.984
				c-0.894-0.656-1.341-1.598-1.341-2.828c0-0.893,0.279-1.717,0.838-2.471c0.279-0.307,0.516-0.566,0.712-0.775
				c0.195-0.209,0.293-0.425,0.293-0.649c0-0.195-0.098-0.293-0.293-0.293c-0.643,0-1.494,0.482-2.555,1.445
				c-1.062,0.963-1.732,2.046-2.011,3.246c1.368,2.346,2.276,4.036,2.723,5.069c0.446,1.033,0.67,2.444,0.67,4.231
				c0,3.407-1.201,6.311-3.603,8.713c-2.402,2.401-5.292,3.603-8.671,3.603c-0.615,0-1.278-0.077-1.99-0.23
				c-0.712-0.154-1.39-0.412-2.032-0.775l0.209-0.503c0.503,0.279,1.117,0.482,1.843,0.607c0.726,0.126,1.382,0.189,1.969,0.189
				c1.48,0,2.702-0.433,3.665-1.298c0.963-0.866,1.445-2.095,1.445-3.686c0-1.201-0.217-2.331-0.649-3.393
				c-0.433-1.061-1.096-2.22-1.99-3.477c-0.782,1.564-2.018,2.96-3.707,4.189c-1.69,1.229-3.624,1.843-5.802,1.843
				c-1.899,0-3.568-0.649-5.006-1.948c-1.439-1.298-2.157-2.939-2.157-4.922c0-2.262,0.6-4.049,1.801-5.362
				C204.589,466.442,206.963,464.989,210.51,463.398z M217.924,473.493c-1.955-2.513-3.519-4.531-4.692-6.053
				c-1.173-1.522-1.983-2.688-2.43-3.498c-0.643,0.335-1.159,0.761-1.55,1.278c-0.391,0.517-0.587,1.124-0.587,1.822
				c0,1.788,0.747,3.526,2.241,5.215c1.494,1.69,2.939,2.534,4.336,2.534c0.698,0,1.236-0.097,1.613-0.293
				C217.233,474.303,217.589,473.968,217.924,473.493z M219.558,458.413c1.061-0.558,1.906-1.242,2.534-2.053
				c0.628-0.81,0.943-1.857,0.943-3.142c0-1.2-0.245-2.178-0.733-2.932c-0.489-0.754-1.39-1.131-2.702-1.131
				c-0.838,0-1.662,0.272-2.472,0.817c-0.81,0.545-1.215,1.361-1.215,2.451c0,0.95,0.384,1.934,1.152,2.953
				C217.833,456.395,218.664,457.407,219.558,458.413z"/>
		</g>
		<g>
			<path d="M282.518,454.744v7.474c-0.636-0.848-1.437-1.5-2.401-1.956c-0.965-0.456-1.988-0.684-3.069-0.684
				c-1.888,0-3.424,0.636-4.612,1.908c-1.188,1.272-1.781,2.852-1.781,4.739c0,1.909,0.599,3.472,1.797,4.692
				c1.198,1.219,2.761,1.829,4.691,1.829c1.018,0,2.004-0.228,2.958-0.684c0.954-0.456,1.76-1.076,2.417-1.861v7.474
				c-2.417,0.742-4.251,1.113-5.502,1.113c-3.414,0-6.414-1.177-9-3.531c-2.566-2.31-3.849-5.332-3.849-9.064
				c0-3.435,1.177-6.361,3.531-8.778c1.187-1.209,2.587-2.157,4.198-2.847c1.611-0.689,3.254-1.033,4.929-1.033
				C278.67,453.536,280.567,453.939,282.518,454.744z"/>
			<path d="M301.473,454.919c2.014-1.028,4.177-1.542,6.488-1.542c2.31,0,4.473,0.514,6.488,1.542
				c2.014,1.029,3.646,2.497,4.898,4.405c1.251,1.909,1.876,4.039,1.876,6.393c0,3.88-1.246,7.056-3.737,9.525
				c-2.492,2.47-5.667,3.705-9.525,3.705c-3.859,0-7.034-1.235-9.525-3.705c-2.492-2.47-3.737-5.645-3.737-9.525
				c0-2.354,0.625-4.484,1.877-6.393C297.826,457.416,299.459,455.948,301.473,454.919z M312.732,461.328
				c-1.335-1.272-2.926-1.908-4.77-1.908c-1.845,0-3.435,0.636-4.771,1.908c-1.336,1.272-2.004,2.746-2.004,4.421
				c0,2.035,0.657,3.737,1.971,5.104c1.315,1.368,2.915,2.052,4.803,2.052c1.886,0,3.487-0.684,4.802-2.052
				c1.314-1.367,1.972-3.069,1.972-5.104C314.736,464.074,314.068,462.6,312.732,461.328z"/>
			<path d="M333.658,478.152v-23.98h8.841c3.35,0,6.218,1.16,8.603,3.482c2.385,2.322,3.578,5.158,3.578,8.508
				c0,3.35-1.193,6.186-3.578,8.508c-2.385,2.322-5.253,3.483-8.603,3.483H333.658z M339.892,459.452v13.421h1.399
				c1.992,0,3.641-0.562,4.945-1.685c1.304-1.124,1.956-2.799,1.956-5.025c0-2.099-0.626-3.742-1.877-4.929
				c-1.251-1.187-2.905-1.781-4.961-1.781H339.892z"/>
			<path d="M380.76,459.452h-7.41v4.007h7.028v5.279h-7.028v4.135h7.41v5.279h-13.644v-23.98h13.644V459.452z"/>
		</g>
	</g>

	<g id="kyleconrad">
		<path d="M7.242,12.29l8.669-11.376h8.888L13.826,13.973l11.961,14.521h-9.291L7.242,16.533H7.169v11.961H0l0-27.58h7.169V12.29
			H7.242z"/>
		<path d="M45.832,15.253L35.663,0.915h8.596l5.157,7.498l5.158-7.498h8.596L53.001,15.253v13.241h-7.169V15.253z"/>
		<path d="M82.957,0.915v21.508h8.596v6.072H75.788V0.915H82.957z"/>
		<path d="M121.758,6.986h-8.522v4.609h8.084v6.072h-8.084v4.755h8.522v6.072h-15.691V0.915h15.691V6.986z"/>
		<path d="M180.391,1.573v8.596c-0.732-0.975-1.652-1.725-2.762-2.25c-1.11-0.524-2.286-0.786-3.529-0.786
			c-2.171,0-3.939,0.732-5.304,2.195c-1.366,1.463-2.048,3.28-2.048,5.45c0,2.195,0.689,3.994,2.066,5.395
			c1.378,1.402,3.176,2.103,5.395,2.103c1.171,0,2.304-0.262,3.402-0.786c1.097-0.524,2.024-1.237,2.78-2.14v8.596
			c-2.78,0.853-4.889,1.28-6.328,1.28c-3.926,0-7.376-1.353-10.352-4.06c-2.951-2.658-4.426-6.133-4.426-10.425
			c0-3.95,1.353-7.315,4.06-10.095c1.365-1.39,2.975-2.481,4.828-3.274c1.853-0.792,3.743-1.189,5.669-1.189
			C175.965,0.183,178.147,0.646,180.391,1.573z"/>
		<path d="M202.19,1.774C204.507,0.592,206.994,0,209.652,0c2.658,0,5.145,0.592,7.462,1.774c2.316,1.183,4.194,2.872,5.633,5.066
			c1.438,2.195,2.158,4.646,2.158,7.352c0,4.463-1.433,8.115-4.297,10.955c-2.866,2.841-6.517,4.262-10.955,4.262
			c-4.439,0-8.09-1.421-10.955-4.262c-2.866-2.84-4.298-6.492-4.298-10.955c0-2.706,0.719-5.158,2.158-7.352
			C197.996,4.646,199.873,2.957,202.19,1.774z M215.139,9.145c-1.537-1.463-3.365-2.195-5.487-2.195c-2.121,0-3.95,0.731-5.487,2.195
			c-1.536,1.463-2.304,3.158-2.304,5.084c0,2.341,0.755,4.298,2.268,5.871c1.511,1.573,3.352,2.359,5.523,2.359
			c2.17,0,4.011-0.786,5.523-2.359s2.268-3.53,2.268-5.871C217.443,12.303,216.676,10.608,215.139,9.145z"/>
		<path d="M238.008,28.494V0.915h7.169l13.131,16.863h0.073V0.915h7.169v27.58h-7.169L245.25,11.595h-0.073v16.899H238.008z"/>
		<path d="M295.471,17.192l8.669,11.303h-8.925l-6.767-10.608h-0.073v10.608h-7.169V0.915h10.717c2.877,0,5.194,0.707,6.95,2.122
			c1.756,1.415,2.633,3.536,2.633,6.365c0,1.975-0.531,3.683-1.591,5.121C298.854,15.961,297.373,16.851,295.471,17.192z
			 M288.375,6.401v6.876h0.695c3.316,0,4.974-1.146,4.974-3.438s-1.658-3.438-4.974-3.438H288.375z"/>
		<path d="M333.95,23.703h-9.876l-1.902,4.792h-7.608l10.608-27.58h7.828l10.388,27.58h-7.645L333.95,23.703z M332.011,18.216
			l-2.926-8.778h-0.073l-2.963,8.778H332.011z"/>
		<path d="M356.592,28.494V0.915h10.168c3.853,0,7.151,1.335,9.894,4.005c2.743,2.67,4.115,5.932,4.115,9.785
			s-1.371,7.114-4.115,9.784c-2.743,2.67-6.041,4.005-9.894,4.005H356.592z M363.761,6.986v15.436h1.609
			c2.292,0,4.189-0.646,5.688-1.939c1.5-1.292,2.249-3.219,2.249-5.779c0-2.414-0.719-4.304-2.158-5.67
			c-1.439-1.365-3.341-2.048-5.706-2.048H363.761z"/>
	</g>

</svg>
