<?xml version="1.0" encoding="utf-8"?>
<!DOCTYPE svg PUBLIC "-//W3C//DTD SVG 1.1//EN" "http://www.w3.org/Graphics/SVG/1.1/DTD/svg11.dtd">
<?xml-stylesheet type="text/css" href="../css/style.css" ?>

<svg version="1.1" id="Layer_1" xmlns="http://www.w3.org/2000/svg" xmlns:xlink="http://www.w3.org/1999/xlink" x="0px" y="0px"
	 viewBox="0 0 380.769 486.521" enable-background="new 0 0 380.769 486.521" xml:space="preserve">
	<script xmlns="http://www.w3.org/2000/svg" type="text/ecmascript" xmlns:xlink="http://www.w3.org/1999/xlink" xlink:href="../js/smil.user.js"/>

	<g id="pupil" fill="white">
		<path d="M189.889,317.038c-14.427,0-26.164-11.737-26.164-26.164s11.737-26.164,26.164-26.164s26.164,11.737,26.164,26.164
			S204.316,317.038,189.889,317.038z M189.889,277.71c-7.259,0-13.164,5.905-13.164,13.164s5.905,13.164,13.164,13.164
			s13.164-5.905,13.164-13.164S197.148,277.71,189.889,277.71z"/>
		<path d="M189.889,351.236c-33.284,0-60.362-27.079-60.362-60.362c0-33.284,27.079-60.363,60.362-60.363
			c33.284,0,60.363,27.079,60.363,60.363C250.252,324.158,223.173,351.236,189.889,351.236z M189.889,243.511
			c-26.116,0-47.362,21.247-47.362,47.363s21.247,47.362,47.362,47.362s47.363-21.247,47.363-47.362S216.005,243.511,189.889,243.511
			z"/>
	</g>

	<path id="lowereye" fill="white" d="M191.343,373.315l-1.165-0.008c-10.395-0.168-35.274-2.989-62.564-23.398
		c-26.798-20.042-62.161-46.848-62.515-47.116c-2.86-2.17-3.434-6.248-1.264-9.107c2.171-2.859,6.24-3.418,9.1-1.249
		c0.354,0.268,35.647,27.048,62.408,47.062c24.62,18.412,46.469,20.729,55.236,20.814c8.767-0.085,30.617-2.402,55.236-20.814
		c26.664-19.941,61.874-48.708,62.227-48.996c2.779-2.273,6.874-1.862,9.146,0.918c2.272,2.779,1.861,6.874-0.918,9.146
		c-0.354,0.29-35.656,29.23-62.547,49.341c-27.289,20.409-52.38,23.23-62.38,23.398V373.315z"/>

	<g id="eyelid">
		<path fill="black" d="M60.795,307.973L190.385,84.025l129.133,223.948c0,0-50.16-71.817-129.361-71.817
			S60.795,307.973,60.795,307.973z">
			<animate repeatCount="indefinite" dur="8s" begin="5s" calcMode="spline" keySplines="0.42 0.15 0.59 0.93;0.42 0.15 0.59 0.93;0.42 0.15 0.59 0.93" keyTimes="0; 0.02; 0.04; 1" attributeName="d" from="M60.795,307.973L190.385,84.025l129.133,223.948c0,0-50.16-71.817-129.361-71.817
			S60.795,307.973,60.795,307.973z" to="M60.795,307.973L190.385,84.025l129.133,223.948c0,0-50.16-71.817-129.361-71.817
			S60.795,307.973,60.795,307.973z" values="M60.795,307.973L190.385,84.025l129.133,223.948c0,0-50.16-71.817-129.361-71.817
			S60.795,307.973,60.795,307.973z;M61.327,308.643L190.041,83.71l129.133,223.948c0,0-50.16,58.842-129.361,58.842
			S61.327,308.643,61.327,308.643z;M60.795,307.973L190.385,84.025l129.133,223.948c0,0-50.16-71.817-129.361-71.817
			S60.795,307.973,60.795,307.973z;M60.795,307.973L190.385,84.025l129.133,223.948c0,0-50.16-71.817-129.361-71.817
			S60.795,307.973,60.795,307.973z"/>
		</path>
		<path fill="none" stroke="white" stroke-width="13" stroke-linecap="round" stroke-miterlimit="10" d="M319.517,307.973
			c0,0-50.16-71.817-129.361-71.817S60.795,307.973,60.795,307.973">
			<animate repeatCount="indefinite" dur="8s" begin="5s" calcMode="spline" keySplines="0.42 0.15 0.59 0.93;0.42 0.15 0.59 0.93;0.42 0.15 0.59 0.93" keyTimes="0; 0.02; 0.04; 1" attributeName="d" from="M319.517,307.973
			c0,0-50.16-71.817-129.361-71.817S60.795,307.973,60.795,307.973" to="M319.517,307.973
			c0,0-50.16-71.817-129.361-71.817S60.795,307.973,60.795,307.973" values="M319.517,307.973
			c0,0-50.16-71.817-129.361-71.817S60.795,307.973,60.795,307.973;M319.174,307.658c0,0-50.16,58.842-129.361,58.842S61.327,308.643,61.327,308.643;M319.517,307.973
			c0,0-50.16-71.817-129.361-71.817S60.795,307.973,60.795,307.973;M319.517,307.973
			c0,0-50.16-71.817-129.361-71.817S60.795,307.973,60.795,307.973"/>
		</path>
	</g>

	<path id="eyebrow" fill="white" d="M350.251,281.042c-1.882,0-3.749-0.813-5.034-2.383l0,0c-0.15-0.184-15.387-18.602-42.005-36.737
		c-24.354-16.593-63.562-36.373-112.041-36.373c-93.232,0-153.445,72.375-154.042,73.106c-2.271,2.78-6.366,3.192-9.146,0.921
		c-2.78-2.271-3.192-6.366-0.921-9.146c0.654-0.8,16.335-19.818,44.38-38.999c25.934-17.738,67.758-38.882,119.73-38.882
		s93.795,21.144,119.729,38.882c28.045,19.181,43.726,38.199,44.38,38.999c2.271,2.78,1.859,6.875-0.921,9.146
		C353.152,280.562,351.697,281.042,350.251,281.042z"/>

	<path id="outline" fill="white" d="M374.931,390.668L196.014,80.775c-1.161-2.011-3.307-3.25-5.629-3.25s-4.468,1.239-5.629,3.25L33.074,343.495
		c-0.352,0.342-0.674,0.723-0.951,1.154c-0.392,0.611-0.663,1.264-0.83,1.931L5.602,391.077c-1.161,2.011-1.161,4.489,0,6.5
		c1.161,2.011,3.307,3.25,5.629,3.25h96.611c0.011,0,0.022,0.002,0.034,0.002c0.014,0,0.027-0.002,0.041-0.002h165.425
		c0.003,0,0.005,0,0.008,0c0.002,0,0.004,0,0.007,0h96.181c0.006,0,0.012,0,0.02,0c3.59,0,6.5-2.91,6.5-6.5
		C376.058,392.97,375.642,391.71,374.931,390.668z M190.384,97.025l143.722,248.934c-11.191,7.371-39.433,26.026-62.761,41.868
		H109.871c-23.1-15.602-51.609-34.075-63.339-41.643L190.384,97.025z M40.025,357.456c9.257,5.974,27.982,18.108,46.465,30.371h-64
		L40.025,357.456z M294.585,387.827c18.521-12.432,37.073-24.687,46.033-30.59l17.661,30.59H294.585z"/>
</svg>
