<?xml version="1.0" encoding="utf-8"?>
<!-- Generator: Adobe Illustrator 17.1.0, SVG Export Plug-In . SVG Version: 6.00 Build 0)  -->
<!DOCTYPE svg PUBLIC "-//W3C//DTD SVG 1.1//EN" "http://www.w3.org/Graphics/SVG/1.1/DTD/svg11.dtd">
<svg version="1.1" id="Layer_1" xmlns="http://www.w3.org/2000/svg" xmlns:xlink="http://www.w3.org/1999/xlink" x="0px" y="0px"
	 viewBox="0 0 628 746" enable-background="new 0 0 628 746" xml:space="preserve">
<g>
	<path d="M10.994,224.141V122.976h37.3c14.132,0,26.231,4.897,36.294,14.692c10.063,9.794,15.094,21.759,15.094,35.891
		c0,14.134-5.032,26.096-15.094,35.891c-10.063,9.794-22.162,14.692-36.294,14.692H10.994z M37.292,145.248v56.62h5.904
		c8.406,0,15.363-2.369,20.864-7.111c5.501-4.741,8.251-11.808,8.251-21.199c0-8.855-2.639-15.786-7.916-20.796
		c-5.279-5.008-12.256-7.514-20.931-7.514H37.292z"/>
	<path d="M53.698,431.603h52.192c-0.18,8.768-0.918,16.191-2.213,22.272c-1.298,6.084-4.004,11.988-8.117,17.711
		c-9.484,13.239-23.393,19.857-41.729,19.857c-15.923,0-28.892-4.941-38.909-14.825c-10.019-9.882-15.027-22.742-15.027-38.574
		c0-16.369,5.052-29.539,15.162-39.513c10.106-9.973,23.346-14.961,39.715-14.961c10.551,0,19.722,2.372,27.506,7.112
		c7.781,4.742,13.818,11.807,18.111,21.199l-24.955,10.465c-1.877-5.008-4.698-8.943-8.452-11.807
		c-3.757-2.862-8.23-4.293-13.419-4.293c-8.139,0-14.556,3.22-19.253,9.661c-4.695,6.44-7.044,13.865-7.044,22.272
		c0,8.409,2.392,15.788,7.179,22.138c4.784,6.352,11.289,9.526,19.519,9.526c5.904,0,10.779-1.52,14.625-4.562
		c3.846-3.04,6.04-7.38,6.575-13.015H53.698V431.603z"/>
	<path d="M52.464,643.263c11.022,0,19.429,4.361,25.219,13.081s8.686,21.405,8.686,38.055c0,16.557-2.885,29.207-8.651,37.951
		c-5.767,8.744-14.185,13.115-25.253,13.115c-10.976,0-19.359-4.359-25.149-13.08c-5.791-8.721-8.686-21.382-8.686-37.986
		s2.883-29.276,8.65-38.02C33.046,647.636,41.441,643.263,52.464,643.263z M52.464,735.419c14.51,0,21.766-13.673,21.766-41.02
		c0-27.393-7.256-41.09-21.766-41.09c-7.07,0-12.452,3.547-16.15,10.639c-3.697,7.093-5.546,17.242-5.546,30.451
		c0,13.348,1.837,23.522,5.511,30.521C39.952,731.92,45.347,735.419,52.464,735.419z"/>
</g>
<g>
	<path d="M271.979,145.248h-31.262v16.905h29.652v22.272h-29.652v17.442h31.262v22.272h-57.559V122.976h57.559V145.248z"/>
	<path d="M193.077,488.089V386.924h26.298l48.166,61.853h0.269v-61.853h26.297v101.165h-26.297l-48.168-61.987h-0.268v61.987
		H193.077z"/>
	<path d="M212.19,645.147h19.394c12.882,0,23.207,4.385,30.974,13.15c7.766,8.768,11.65,20.802,11.65,36.102
		c0,15.626-3.942,27.731-11.825,36.311c-7.883,8.581-17.988,12.871-30.312,12.871H212.19V645.147z M223.63,733.605h8.092
		c9.349,0,16.743-3.464,22.185-10.395c5.441-6.929,8.162-16.533,8.162-28.811c0-12.185-2.733-21.777-8.197-28.777
		c-5.465-6.998-12.848-10.499-22.15-10.499h-8.092V733.605z"/>
</g>
<g>
	<path d="M458.588,128.611l-10.465,20.394c-5.367-4.472-11.182-6.709-17.442-6.709c-2.774,0-5.346,0.761-7.715,2.281
		c-2.371,1.522-3.555,3.579-3.555,6.172c0,1.79,0.738,3.4,2.214,4.83c1.476,1.432,2.862,2.415,4.159,2.952
		c1.296,0.537,3.064,1.163,5.3,1.878l6.709,2.013c7.87,2.327,13.998,5.615,18.381,9.862c4.382,4.25,6.575,10.176,6.575,17.778
		c0,12.255-3.488,21.333-10.465,27.237c-7.514,6.352-17.086,9.526-28.713,9.526c-12.702,0-24.553-3.845-35.555-11.539l11.27-21.199
		c7.96,6.977,15.742,10.465,23.346,10.465c3.398,0,6.373-0.872,8.923-2.616c2.549-1.744,3.823-4.271,3.823-7.581
		c0-4.562-4.249-8.095-12.746-10.599c-0.268-0.088-1.341-0.403-3.22-0.939c-4.831-1.341-8.633-2.593-11.405-3.757
		c-2.774-1.161-5.547-2.795-8.318-4.897c-2.774-2.101-4.743-4.763-5.904-7.984c-1.163-3.22-1.744-7.199-1.744-11.941
		c0-10.197,3.265-18.403,9.794-24.621c6.528-6.216,14.893-9.325,25.091-9.325c5.098,0,10.532,0.761,16.301,2.281
		C448.995,124.096,454.114,126.108,458.588,128.611z"/>
	<g>
		<path d="M411.948,427.694c-1.069-2.136-1.837-3.971-2.303-5.507c-0.468-1.535-0.701-3.605-0.701-6.208
			c0-6.074,2.575-11.581,7.729-16.521c5.153-4.939,11.075-7.409,17.767-7.409c4.684,0,8.332,0.901,10.942,2.703
			c2.61,1.802,3.915,4.24,3.915,7.309c0,4.205-1.58,7.309-4.739,9.312c-3.159,2.003-6.552,3.805-10.18,5.407
			c1.467,1.67,3.087,3.572,4.856,5.708c1.768,2.137,3.488,4.44,5.157,6.909c1.335-3.337,3.57-6.224,6.709-8.661
			c3.137-2.436,6.842-3.655,11.114-3.655c3.605,0,6.624,1.018,9.062,3.054c2.436,2.037,3.655,4.691,3.655,7.961
			c0,3.138-1.035,5.775-3.104,7.91c-2.07,2.137-4.673,3.204-7.81,3.204c-3.071,0-5.675-0.784-7.81-2.353
			c-2.137-1.568-3.204-3.821-3.204-6.759c0-2.136,0.667-4.105,2.003-5.907c0.666-0.734,1.234-1.352,1.702-1.852
			c0.466-0.5,0.701-1.017,0.701-1.552c0-0.466-0.235-0.701-0.701-0.701c-1.536,0-3.572,1.152-6.108,3.455
			c-2.538,2.303-4.14,4.891-4.806,7.76c3.27,5.607,5.44,9.647,6.508,12.116c1.067,2.47,1.602,5.842,1.602,10.113
			c0,8.145-2.871,15.085-8.611,20.826c-5.742,5.74-12.65,8.611-20.726,8.611c-1.469,0-3.054-0.185-4.756-0.551
			c-1.702-0.368-3.321-0.986-4.856-1.852l0.5-1.202c1.202,0.667,2.669,1.152,4.406,1.452c1.735,0.301,3.304,0.451,4.706,0.451
			c3.538,0,6.458-1.035,8.761-3.104c2.303-2.07,3.455-5.006,3.455-8.812c0-2.871-0.518-5.572-1.552-8.11
			c-1.036-2.536-2.621-5.307-4.756-8.31c-1.869,3.739-4.823,7.076-8.861,10.013c-4.039,2.938-8.661,4.406-13.868,4.406
			c-4.54,0-8.528-1.552-11.965-4.656c-3.439-3.104-5.157-7.024-5.157-11.765c0-5.407,1.435-9.678,4.306-12.816
			C397.795,434.97,403.47,431.499,411.948,427.694z M429.67,451.825c-4.673-6.007-8.411-10.829-11.214-14.468
			c-2.804-3.637-4.741-6.424-5.807-8.361c-1.536,0.801-2.771,1.819-3.705,3.054c-0.935,1.236-1.402,2.688-1.402,4.355
			c0,4.273,1.785,8.428,5.357,12.466c3.57,4.039,7.025,6.058,10.363,6.058c1.668,0,2.954-0.233,3.855-0.701
			C428.019,453.762,428.87,452.961,429.67,451.825z M433.576,415.779c2.536-1.335,4.556-2.97,6.058-4.906
			c1.502-1.935,2.253-4.439,2.253-7.51c0-2.869-0.585-5.207-1.752-7.009c-1.169-1.802-3.322-2.703-6.458-2.703
			c-2.003,0-3.972,0.651-5.908,1.953c-1.937,1.302-2.904,3.254-2.904,5.857c0,2.27,0.917,4.623,2.754,7.059
			C429.453,410.956,431.438,413.375,433.576,415.779z"/>
	</g>
	<path d="M452.088,743.581h-51.414v-98.434h50.997v9.976h-39.556v30.486h38.021v9.977h-38.021v38.02h39.974V743.581z"/>
</g>
<g>
	<path d="M607.933,122.976v101.165h-26.298V122.976H607.933z"/>
	<path d="M628.105,480.585c-7.72,5.348-16.673,8.022-26.858,8.022c-12.743,0-22.428-4.37-29.055-13.115
		c-6.628-8.743-9.941-21.393-9.941-37.95c0-15.999,3.209-28.521,9.627-37.567c6.418-9.046,16.207-13.569,29.369-13.569
		c4.744,0,9.441,0.605,14.092,1.814c4.65,1.209,8.395,2.815,11.232,4.814l-3.768,8.999c-6.557-3.721-13.743-5.581-21.556-5.581
		c-9.069,0-15.813,3.291-20.231,9.871c-4.419,6.582-6.627,16.986-6.627,31.218c0,27.347,8.952,41.02,26.858,41.02
		c7.58,0,15.347-2.325,23.301-6.976L628.105,480.585z"/>
	<rect x="563.289" y="733.611" width="62.99" height="9.97"/>
</g>
<g opacity="0.2">
	<path d="M15.617,17.649L28.066,1.314h12.766L25.072,20.066l17.177,20.853H28.907l-13.29-17.176h-0.105v17.176H5.218V1.314h10.294
		v16.335H15.617z"/>
	<path d="M79.202,21.904L64.599,1.314h12.344l7.405,10.767l7.408-10.767h12.344l-14.603,20.59v19.014H79.202V21.904z"/>
	<path d="M139.693,1.314v30.887h12.344v8.718h-22.638V1.314H139.693z"/>
	<path d="M200.63,10.033h-12.239v6.618H200v8.719h-11.609v6.83h12.239v8.718h-22.533V1.314h22.533V10.033z"/>
	<path d="M299.537,2.259v12.344c-1.049-1.4-2.371-2.477-3.964-3.23c-1.595-0.753-3.283-1.13-5.069-1.13
		c-3.117,0-5.656,1.05-7.617,3.152c-1.961,2.101-2.942,4.71-2.942,7.826c0,3.151,0.991,5.735,2.968,7.748
		c1.98,2.013,4.561,3.019,7.748,3.019c1.681,0,3.309-0.375,4.885-1.128c1.576-0.753,2.908-1.777,3.992-3.073V40.13
		c-3.992,1.224-7.02,1.84-9.086,1.84c-5.638,0-10.592-1.945-14.864-5.831c-4.239-3.817-6.356-8.806-6.356-14.97
		c0-5.673,1.942-10.505,5.829-14.498c1.961-1.996,4.272-3.563,6.934-4.701c2.66-1.138,5.374-1.707,8.142-1.707
		C293.181,0.263,296.314,0.929,299.537,2.259z"/>
	<path d="M337.565,2.548C340.892,0.85,344.464,0,348.281,0s7.389,0.85,10.716,2.548c3.325,1.699,6.023,4.122,8.088,7.275
		c2.066,3.151,3.099,6.671,3.099,10.558c0,6.408-2.056,11.652-6.172,15.732c-4.115,4.08-9.359,6.118-15.731,6.118
		c-6.375,0-11.618-2.038-15.731-6.118c-4.115-4.08-6.172-9.324-6.172-15.732c0-3.887,1.033-7.406,3.099-10.558
		C331.543,6.671,334.238,4.247,337.565,2.548z M356.16,13.132c-2.206-2.101-4.831-3.151-7.878-3.151s-5.673,1.05-7.878,3.151
		c-2.206,2.102-3.311,4.536-3.311,7.301c0,3.362,1.087,6.172,3.257,8.431c2.171,2.258,4.815,3.388,7.932,3.388
		c3.115,0,5.759-1.13,7.932-3.388c2.171-2.259,3.255-5.069,3.255-8.431C359.468,17.668,358.365,15.234,356.16,13.132z"/>
	<path d="M398.045,40.918V1.314h10.294l18.858,24.215h0.105V1.314h10.294v39.605h-10.294l-18.858-24.267h-0.105v24.267H398.045z"/>
	<path d="M487.886,24.688l12.448,16.23h-12.817l-9.718-15.232h-0.105v15.232H467.4V1.314h15.389c4.132,0,7.459,1.015,9.982,3.046
		c2.52,2.031,3.782,5.078,3.782,9.14c0,2.836-0.762,5.288-2.285,7.354C492.745,22.92,490.616,24.197,487.886,24.688z M477.694,9.192
		v9.876h0.998c4.763,0,7.144-1.646,7.144-4.938c0-3.291-2.381-4.937-7.144-4.937H477.694z"/>
	<path d="M552.22,34.038h-14.183l-2.73,6.881H524.38l15.232-39.605h11.241l14.918,39.605h-10.977L552.22,34.038z M549.436,26.158
		l-4.202-12.606h-0.107l-4.253,12.606H549.436z"/>
	<path d="M591.754,40.918V1.314h14.603c5.531,0,10.268,1.917,14.206,5.751c3.94,3.834,5.911,8.519,5.911,14.051
		s-1.97,10.216-5.911,14.05c-3.938,3.833-8.676,5.752-14.206,5.752H591.754z M602.048,10.033v22.168h2.313
		c3.29,0,6.013-0.929,8.168-2.785c2.152-1.856,3.229-4.622,3.229-8.299c0-3.467-1.033-6.18-3.099-8.142
		c-2.066-1.961-4.798-2.941-8.193-2.941H602.048z"/>
</g>
</svg>
