<?xml version="1.0" encoding="utf-8"?>
<!-- Generator: Adobe Illustrator 19.2.1, SVG Export Plug-In . SVG Version: 6.00 Build 0)  -->
<!DOCTYPE svg PUBLIC "-//W3C//DTD SVG 1.1//EN" "http://www.w3.org/Graphics/SVG/1.1/DTD/svg11.dtd">
<svg version="1.1" id="Layer_1" xmlns="http://www.w3.org/2000/svg" xmlns:xlink="http://www.w3.org/1999/xlink" x="0px" y="0px"
	 viewBox="0 0 371.326 323.305" enable-background="new 0 0 371.326 323.305" xml:space="preserve">
<g id="eyelid6" display="none">
	<path display="inline" fill="#FFFFFF" d="M56.595,231.118L185.309,6.185l129.133,223.948c0,0-50.16,58.842-129.361,58.842
		S56.595,231.118,56.595,231.118z"/>
	<path display="inline" fill="none" stroke="#000000" stroke-width="13" stroke-linecap="round" stroke-miterlimit="10" d="
		M314.442,230.133c0,0-50.16,58.842-129.361,58.842S56.595,231.118,56.595,231.118"/>
</g>
<g id="eyelid5" display="none">
	<path display="inline" fill="#FFFFFF" d="M56.72,229.133L185.663,6.86l128.645,222.848c0,0-49.026,26.1-128.227,26.1
		S56.72,229.133,56.72,229.133z"/>
	<path display="inline" fill="none" stroke="#000000" stroke-width="13" stroke-linecap="round" stroke-miterlimit="10" d="
		M314.308,230.708c0,0-49.026,26.1-128.227,26.1S56.72,230.133,56.72,230.133"/>
</g>
<g id="eyelid4" display="none">
	<path display="inline" fill="#FFFFFF" d="M57.612,230.79c0,0,50.146,0,128.633,0s128.367,0,128.367,0l-0.298-0.565L185.355,6.56
		L57.612,230.79z"/>
	<path display="inline" fill="none" stroke="#000000" stroke-width="13" stroke-linecap="round" stroke-miterlimit="10" d="
		M314.612,230.29c0,0-49.88,0-128.367,0s-128.633,0-128.633,0"/>
</g>
<g id="eyelid3" display="none">
	<path display="inline" fill="#FFFFFF" d="M57.787,230.133L185.309,6.185l129.133,223.948c0,0-50.16-26.616-129.361-26.616
		S57.787,230.133,57.787,230.133z"/>
	<path display="inline" fill="none" stroke="#000000" stroke-width="13" stroke-linecap="round" stroke-miterlimit="10" d="
		M314.442,230.133c0,0-50.16-26.616-129.361-26.616S57.787,230.133,57.787,230.133"/>
</g>
<g id="eyelid2" display="none">
	<path display="inline" fill="#FFFFFF" d="M56.945,230.448L185.309,6.185l129.133,223.948c0,0-50.16-49.325-129.361-49.325
		S56.945,230.448,56.945,230.448z"/>
	<path display="inline" fill="none" stroke="#000000" stroke-width="13" stroke-linecap="round" stroke-miterlimit="10" d="
		M314.442,230.133c0,0-50.16-49.325-129.361-49.325s-128.136,49.64-128.136,49.64"/>
</g>
<g>
	<path fill="#FFFFFF" d="M185.157,239.513c14.427,0,26.164-11.737,26.164-26.164s-11.737-26.164-26.164-26.164
		s-26.164,11.737-26.164,26.164S170.73,239.513,185.157,239.513z M185.157,200.185c7.259,0,13.164,5.905,13.164,13.164
		s-5.905,13.164-13.164,13.164s-13.164-5.905-13.164-13.164S177.898,200.185,185.157,200.185z"/>
	<path fill="#FFFFFF" d="M370.199,313.143l-93.427-161.82c8.157,4.308,15.43,8.796,21.708,13.073
		c26.618,18.136,41.854,36.554,42.005,36.737c1.285,1.57,3.152,2.383,5.034,2.383c1.446,0,2.901-0.48,4.109-1.466
		c2.78-2.271,3.192-6.366,0.921-9.146c-0.654-0.8-16.335-19.818-44.38-38.999c-10.93-7.476-24.693-15.552-40.839-22.4L191.282,3.25
		C190.121,1.239,187.975,0,185.653,0s-4.468,1.239-5.629,3.25L105.46,132.398c-15.248,6.651-28.293,14.355-38.75,21.508
		c-28.045,19.181-43.726,38.199-44.38,38.999c-2.271,2.78-1.859,6.875,0.921,9.146c2.781,2.271,6.875,1.859,9.146-0.921
		c0.364-0.445,22.826-27.446,61.383-48.503l-41.78,72.365c-0.748,0.998-1.178,1.608-1.267,1.734
		c-0.466,0.667-0.782,1.393-0.969,2.138L28.342,265.97c-0.352,0.342-0.674,0.723-0.951,1.154c-0.392,0.611-0.663,1.264-0.83,1.931
		L0.87,313.552c-1.161,2.011-1.161,4.489,0,6.5c1.161,2.011,3.307,3.25,5.629,3.25h96.611c0.011,0,0.022,0.002,0.034,0.002
		c0.014,0,0.027-0.002,0.041-0.002H268.61c0.003,0,0.005,0,0.008,0c0.002,0,0.004,0,0.007,0h96.181c0.006,0,0.012,0,0.02,0
		c3.59,0,6.5-2.91,6.5-6.5C371.326,315.445,370.91,314.185,370.199,313.143z M95.407,199.374
		c11.159-8.892,26.186-18.75,44.229-25.599c-9.231,10.605-14.84,24.442-14.84,39.574c0,33.284,27.079,60.362,60.362,60.362
		c33.284,0,60.363-27.079,60.363-60.362c0-15.271-5.711-29.225-15.095-39.867c18.393,6.858,33.697,16.872,45.017,25.892
		c8.445,6.729,15.469,13.497,20.905,19.256c-11.648,9.419-35.739,28.74-55.264,43.343c-24.62,18.412-46.47,20.729-55.236,20.814
		c-8.767-0.085-30.616-2.402-55.236-20.814c-20.332-15.206-45.573-34.305-56.691-42.728
		C79.433,213.357,86.662,206.342,95.407,199.374z M185.157,165.986c26.116,0,47.363,21.247,47.363,47.363
		s-21.247,47.362-47.363,47.362s-47.362-21.247-47.362-47.362S159.041,165.986,185.157,165.986z M185.653,19.5l60.587,104.94
		c-17.853-5.662-37.923-9.417-59.8-9.417c-22.665,0-43.399,4.023-61.728,10.029L185.653,19.5z M186.44,128.023
		c26.313,0,49.887,5.832,69.845,13.814l27.427,47.505c-30.487-24.344-64.469-37.212-98.287-37.212
		c-33.51,0-67.18,12.641-97.452,36.555l26.558-45.999C135.317,134.074,159.496,128.023,186.44,128.023z M17.758,310.302
		l17.535-30.371c9.257,5.974,27.982,18.108,46.465,30.371H17.758z M266.614,310.302H105.139
		c-23.1-15.602-51.609-34.075-63.339-41.643l21.029-36.423c0.635-0.831,1.48-1.911,2.523-3.195
		c10.723,8.118,36.708,27.768,57.531,43.341c27.29,20.409,52.169,23.23,62.564,23.398l1.165,0.008v-0.008
		c10-0.168,35.091-2.989,62.38-23.398c19.925-14.902,44.454-34.64,55.976-43.989c2.905,3.539,4.449,5.719,4.492,5.78
		c0.154,0.219,0.319,0.426,0.494,0.62l19.422,33.639C318.184,275.805,289.942,294.46,266.614,310.302z M289.853,310.302
		c18.521-12.432,37.073-24.687,46.033-30.59l17.661,30.59H289.853z"/>
</g>
</svg>
