<?xml version="1.0" encoding="utf-8"?>
<!DOCTYPE svg PUBLIC "-//W3C//DTD SVG 1.1//EN" "http://www.w3.org/Graphics/SVG/1.1/DTD/svg11.dtd">
<?xml-stylesheet type="text/css" href="../css/style.css" ?>

<svg version="1.1" xmlns="http://www.w3.org/2000/svg" xmlns:xlink="http://www.w3.org/1999/xlink" x="0px" y="0px"
	 viewBox="0 0 725.948 307.089" enable-background="new 0 0 725.948 307.089" xml:space="preserve">

<g id="stranger-title-small" opacity="0.75">
	<path fill="#E52A26" d="M339.095,186.57l-1.106-2.676h-3.685l-1.148,2.676h-2.115l4.314-10.352h1.513l4.343,10.352H339.095z
		 M336.112,178.922l-1.106,3.137h2.213L336.112,178.922z"/>
	<path fill="#E52A26" d="M365.502,186.57l-4.329-7.522v7.522h-1.919v-10.352h2.186l4.286,7.536v-7.536h1.919v10.352H365.502z"/>
	<path fill="#E52A26" d="M392.373,185.995c-0.841,0.42-1.779,0.574-3.348,0.574h-2.41v-10.352h2.367
		c1.625,0,2.858,0.252,3.671,0.742c1.442,0.869,2.255,2.494,2.255,4.454C394.908,183.502,393.969,185.211,392.373,185.995z
		 M391.392,178.474c-0.603-0.308-1.261-0.42-2.479-0.42h-0.379v6.682h0.421c1.148,0,1.947-0.14,2.521-0.462
		c0.924-0.505,1.498-1.611,1.498-2.858C392.974,180.084,392.373,178.977,391.392,178.474z"/>
</g>

<g id="stranger-title-big">
	<g>
		<path fill="#E52A26" d="M202.753,197.953c3.017,0,7.29,0.418,12.702,1.242c5.834,0.881,10.074,1.309,12.961,1.309
			c2.005,0,3.787-0.395,5.317-1.165l4.897,24.678c-2.967-4.369-6.366-8.213-10.168-11.491c-6.696-5.771-14.622-8.698-23.557-8.698
			c-6.989,0-13.318,1.812-18.811,5.387c-5.473,3.562-9.764,8.591-12.754,14.945c-2.939,6.245-4.43,13.446-4.43,21.401
			c0,9.541,2.116,18.355,6.289,26.196c4.189,7.875,10.003,14.17,17.279,18.71c7.305,4.559,15.508,6.87,24.382,6.87
			c11.713,0,21.295-3.918,28.633-11.677l-6.064,16.941c-1.217-0.441-2.553-0.663-3.999-0.663c-1.549,0-3.041,0.198-4.442,0.589
			l-8.215,0.615l-0.073,0.005l-0.073,0.009c-1.087,0.135-3.633,0.296-9.592,0.296c-9.557,0-18.416-1.367-26.329-4.064
			c-7.858-2.678-14.695-6.508-20.302-11.364c-5.549-4.899-9.908-10.83-12.952-17.619c-3.001-6.753-4.523-14.36-4.523-22.611
			c0-7.654,1.255-14.666,3.73-20.841c2.453-6.119,6.038-11.4,10.656-15.696c4.632-4.31,10.317-7.633,16.896-9.876
			C186.878,199.106,194.462,197.953,202.753,197.953 M235.589,193.279c-1.382,2.817-3.773,4.224-7.173,4.224
			c-2.71,0-6.881-0.425-12.513-1.275c-5.579-0.849-9.962-1.275-13.15-1.275c-8.661,0-16.497,1.195-23.511,3.587
			c-7.013,2.391-13.005,5.897-17.972,10.52c-4.969,4.622-8.767,10.215-11.397,16.776c-2.63,6.563-3.945,13.881-3.945,21.957
			c0,8.715,1.594,16.657,4.782,23.83c3.24,7.227,7.81,13.443,13.708,18.65c5.95,5.154,13.057,9.139,21.319,11.955
			c8.261,2.815,17.361,4.224,27.297,4.224c4.941,0,8.261-0.108,9.962-0.319l8.528-0.638c1.222-0.372,2.523-0.557,3.905-0.557
			c2.284,0,4.144,0.717,5.579,2.152l12.353-34.509l-2.072-0.957c-7.173,15.143-18.649,22.714-34.43,22.714
			c-8.342,0-15.94-2.138-22.794-6.415c-6.854-4.277-12.261-10.134-16.219-17.574c-3.959-7.438-5.937-15.701-5.937-24.787
			c0-7.544,1.381-14.252,4.144-20.124c2.762-5.87,6.655-10.44,11.676-13.708c5.021-3.267,10.746-4.901,17.175-4.901
			c8.235,0,15.434,2.658,21.598,7.97c6.163,5.314,11.158,12.114,14.983,20.403l2.232-0.956L235.589,193.279L235.589,193.279z"/>
		<path fill="#E52A26" d="M313.484,197.953c7.875,0,15.23,1.312,21.863,3.899c6.602,2.577,12.39,6.273,17.203,10.985
			c4.803,4.704,8.554,10.377,11.148,16.862c2.608,6.522,3.93,13.709,3.93,21.361c0,7.424-1.369,14.433-4.064,20.823
			c-2.694,6.337-6.563,11.925-11.51,16.622c-4.897,4.697-10.784,8.4-17.498,11.005c-6.744,2.615-14.102,3.941-21.869,3.941
			c-9.625,0-18.292-1.683-25.76-5.002c-7.379-3.279-13.51-8.137-18.22-14.435c-7.22-9.676-10.881-20.871-10.881-33.273
			c0-7.635,1.369-14.75,4.068-21.149c2.697-6.392,6.555-12.022,11.467-16.734c4.914-4.715,10.848-8.415,17.638-10.997
			C297.823,199.268,305.388,197.953,313.484,197.953 M315.795,297.337c6.042,0,11.623-1.828,16.555-5.411
			c4.931-3.481,8.858-8.333,11.673-14.422c2.775-6.006,4.182-12.757,4.182-20.067c0-5.797-0.782-11.823-2.324-17.913
			c-1.552-6.121-3.9-11.87-6.98-17.086c-3.165-5.36-7.292-9.773-12.266-13.118c-5.105-3.432-11.058-5.173-17.693-5.173
			c-6.211,0-11.814,1.821-16.652,5.413c-4.761,3.535-8.474,8.539-11.035,14.873c-2.499,6.176-3.766,13.285-3.766,21.129
			c0,9.134,1.69,17.723,5.023,25.527c3.366,7.882,8.001,14.262,13.776,18.96C302.23,294.884,308.793,297.337,315.795,297.337
			 M313.484,194.953c-8.502,0-16.352,1.368-23.551,4.104c-7.2,2.738-13.417,6.615-18.649,11.637
			c-5.234,5.021-9.285,10.932-12.154,17.733c-2.869,6.802-4.304,14.24-4.304,22.315c0,13.124,3.826,24.814,11.477,35.067
			c5.047,6.748,11.516,11.876,19.406,15.382c7.89,3.507,16.883,5.26,26.978,5.26c8.181,0,15.832-1.383,22.953-4.144
			c7.119-2.762,13.282-6.641,18.49-11.637c5.26-4.993,9.325-10.865,12.194-17.613c2.869-6.801,4.303-14.133,4.303-21.997
			c0-8.076-1.382-15.567-4.144-22.475c-2.763-6.906-6.708-12.871-11.835-17.892c-5.128-5.021-11.198-8.899-18.211-11.637
			C329.424,196.321,321.773,194.953,313.484,194.953L313.484,194.953z M315.795,294.337c-6.323,0-12.194-2.204-17.613-6.615
			c-5.42-4.41-9.723-10.347-12.911-17.812c-3.188-7.465-4.782-15.582-4.782-24.349c0-7.491,1.182-14.159,3.547-20.004
			c2.364-5.845,5.711-10.374,10.042-13.589c4.33-3.214,9.285-4.822,14.864-4.822c6.057,0,11.397,1.554,16.019,4.662
			c4.622,3.108,8.408,7.16,11.357,12.154c2.949,4.995,5.167,10.428,6.655,16.298c1.487,5.872,2.232,11.597,2.232,17.175
			c0,6.907-1.303,13.177-3.905,18.809c-2.604,5.632-6.165,10.041-10.68,13.229C326.156,292.717,321.215,294.337,315.795,294.337
			L315.795,294.337z"/>
		<path fill="#E52A26" d="M412.139,200.184c6.529,0,12.513,0.493,17.809,1.469c5.121,0.904,9.792,2.361,13.883,4.331
			c4.083,1.968,7.896,4.531,11.31,7.597c5.442,4.994,9.726,11.157,12.73,18.316c3.018,7.195,4.548,14.742,4.548,22.43
			c0,6.642-1.239,13.045-3.683,19.03c-2.42,5.927-6.078,11.192-10.873,15.647c-9.111,8.051-22.109,12.134-38.632,12.134h-44.44
			c0.095-0.072,0.187-0.145,0.277-0.219c1.883-1.544,3.12-3.842,3.677-6.832c0.463-2.49,0.689-6.137,0.689-11.149v-64.636
			c0-5.069-0.226-8.72-0.691-11.162c-0.561-2.941-1.806-5.202-3.703-6.722c-0.1-0.08-0.202-0.158-0.307-0.236H412.139
			 M415.726,297.337c8.039,0,15.005-2.05,20.704-6.092c5.647-4.005,9.909-9.372,12.667-15.952
			c2.693-6.423,4.059-13.477,4.059-20.965c0-8.227-1.635-16.262-4.861-23.883c-3.269-7.724-8.086-14.082-14.317-18.898
			c-6.357-4.91-13.92-7.4-22.476-7.4c-5.307,0-8.899,1.251-10.979,3.823c-1.95,2.411-2.859,6.252-2.859,12.088v57.622
			c0,4.907,0.46,8.596,1.404,11.276c1.101,3.132,3.128,5.38,6.022,6.682C407.63,296.781,411.109,297.337,415.726,297.337
			 M412.139,197.184h-45.348v2.949c2.922,0.691,5.048,1.567,6.376,2.63c1.328,1.064,2.204,2.71,2.63,4.942
			c0.425,2.232,0.638,5.766,0.638,10.599v64.636c0,4.782-0.213,8.316-0.638,10.6c-0.426,2.285-1.302,3.972-2.63,5.061
			c-1.328,1.089-3.454,1.953-6.376,2.59v2.949h52.441c17.375,0,30.924-4.303,40.647-12.911c5.154-4.782,9.033-10.36,11.636-16.736
			c2.603-6.376,3.905-13.097,3.905-20.164c0-8.129-1.594-15.992-4.782-23.591c-3.189-7.598-7.678-14.053-13.469-19.366
			c-3.667-3.294-7.68-5.99-12.036-8.09c-4.357-2.098-9.245-3.626-14.665-4.583C424.997,197.69,418.886,197.184,412.139,197.184
			L412.139,197.184z M415.726,294.337c-4.145,0-7.28-0.478-9.405-1.435c-2.126-0.956-3.601-2.602-4.423-4.942
			c-0.824-2.337-1.235-5.764-1.235-10.28v-57.622c0-4.994,0.729-8.394,2.191-10.201c1.461-1.806,4.343-2.71,8.647-2.71
			c7.917,0,14.797,2.259,20.642,6.774c5.844,4.517,10.307,10.414,13.389,17.694c3.081,7.28,4.623,14.851,4.623,22.713
			c0,7.121-1.275,13.722-3.825,19.805c-2.551,6.085-6.43,10.972-11.636,14.665C429.487,292.492,423.163,294.337,415.726,294.337
			L415.726,294.337z"/>
		<path fill="#E52A26" d="M551.086,199.272l4.913,22.232c-1.726-2.298-3.537-4.357-5.422-6.163
			c-4.046-3.875-8.674-6.824-13.756-8.765l-0.028-0.011l-0.028-0.01c-5.036-1.81-10.74-2.727-16.954-2.727
			c-6.445,0-10.852,1.226-13.474,3.746c-2.659,2.552-3.951,6.741-3.951,12.804v10.281v3h3h12.752c4.509,0,7.957-0.414,10.541-1.267
			c2.75-0.906,4.812-2.431,6.141-4.541l3.201,19.518c-0.601-0.814-1.211-1.565-1.83-2.256c-2.651-2.955-5.803-5.061-9.367-6.26
			c-3.425-1.151-7.648-1.71-12.91-1.71h-8.528h-3v3v37.219c0,3.838,0.289,6.887,0.882,9.317c0.655,2.689,1.792,4.892,3.378,6.545
			c1.615,1.686,3.788,2.878,6.475,3.549c2.432,0.594,5.402,0.883,9.08,0.883c6.541,0,12.97-1.328,19.109-3.947
			c6.111-2.607,11.719-6.396,16.667-11.26c1.657-1.629,3.227-3.376,4.705-5.234l-8.185,24.698c-1.387-0.514-2.937-0.773-4.641-0.773
			h-70.023c0.095-0.072,0.188-0.145,0.278-0.219c1.882-1.544,3.119-3.842,3.677-6.832c0.463-2.491,0.688-6.138,0.688-11.148v-64.636
			c0-5.007-0.225-8.664-0.687-11.183c-0.558-3.028-1.805-5.336-3.707-6.86c-0.032-0.026-0.064-0.051-0.097-0.076h64.373
			C546.893,200.184,549.143,199.879,551.086,199.272 M553.204,194.953c-2.073,1.488-5.021,2.232-8.847,2.232h-72.525v2.949
			c2.921,0.585,5.047,1.408,6.376,2.471c1.327,1.063,2.204,2.75,2.63,5.061c0.424,2.312,0.637,5.858,0.637,10.639v64.636
			c0,4.782-0.213,8.316-0.637,10.6c-0.426,2.285-1.303,3.972-2.63,5.061c-1.329,1.089-3.455,1.953-6.376,2.59v2.949h78.024
			c2.657,0,4.755,0.769,6.297,2.312l13.867-41.842l-2.392-0.956c-3.135,6.483-7.053,12.035-11.755,16.657
			c-4.702,4.622-9.95,8.169-15.741,10.64c-5.792,2.471-11.769,3.706-17.932,3.706c-3.401,0-6.191-0.265-8.369-0.797
			c-2.126-0.53-3.799-1.435-5.021-2.71c-1.223-1.275-2.099-3.001-2.63-5.18c-0.532-2.179-0.797-5.048-0.797-8.608v-37.219h8.528
			c4.888,0,8.873,0.518,11.955,1.554c3.08,1.036,5.778,2.844,8.09,5.42c2.311,2.578,4.555,6.23,6.734,10.959l2.073-0.319
			l-6.536-39.849l-2.072,0.637c-0.159,3.136-0.705,5.567-1.634,7.292c-0.93,1.727-2.525,2.963-4.782,3.706
			c-2.259,0.745-5.459,1.116-9.603,1.116h-12.752v-10.281c0-5.153,1.009-8.7,3.029-10.64c2.018-1.94,5.818-2.91,11.397-2.91
			c5.898,0,11.21,0.851,15.939,2.551c4.729,1.807,8.979,4.516,12.752,8.13c3.772,3.614,7.199,8.263,10.281,13.947l2.311-0.796
			L553.204,194.953L553.204,194.953z"/>
	</g>
	<g>
		<path fill="#E52A26" d="M71.597,33.471c10.412,0,19.966,0.788,28.419,2.346c8.241,1.454,15.768,3.803,22.371,6.983
			c6.596,3.179,12.752,7.318,18.275,12.28c8.781,8.058,15.687,17.992,20.527,29.527c4.854,11.571,7.316,23.712,7.316,36.085
			c0,10.712-2,21.041-5.943,30.701c-3.921,9.6-9.845,18.124-17.608,25.335c-14.713,13.01-35.626,19.608-62.158,19.608H5.342
			c2.785-0.936,4.973-2.07,6.625-3.425c2.648-2.171,4.398-5.455,5.2-9.761c0.712-3.825,1.057-9.479,1.057-17.283V63.815
			c0-7.892-0.347-13.55-1.06-17.297c-0.807-4.226-2.564-7.45-5.226-9.582c-1.681-1.344-3.923-2.49-6.789-3.465H71.597
			 M77.259,186.857c12.323,0,22.983-3.128,31.683-9.298c8.647-6.132,15.175-14.355,19.402-24.44
			c4.163-9.928,6.273-20.839,6.273-32.429c0-12.757-2.535-25.215-7.536-37.031c-5.047-11.919-12.471-21.722-22.068-29.139
			c-9.725-7.512-21.307-11.321-34.424-11.321c-7.822,0-13.05,1.764-15.984,5.391c-2.778,3.433-4.129,9.319-4.129,17.993v90.975
			c0,7.546,0.694,13.182,2.121,17.228c1.576,4.478,4.464,7.688,8.582,9.541C64.961,186.029,70.221,186.857,77.259,186.857
			 M71.597,30.471H0v4.656c4.612,1.091,7.968,2.475,10.066,4.152c2.096,1.679,3.48,4.278,4.153,7.801
			c0.671,3.523,1.007,9.103,1.007,16.735v102.048c0,7.55-0.336,13.129-1.007,16.735c-0.672,3.608-2.057,6.272-4.153,7.99
			c-2.098,1.721-5.454,3.083-10.066,4.09v4.656h82.796c27.43,0,48.821-6.795,64.172-20.384c8.136-7.55,14.26-16.358,18.371-26.424
			c4.109-10.066,6.166-20.677,6.166-31.835c0-12.834-2.516-25.248-7.549-37.245c-5.033-11.995-12.123-22.187-21.265-30.576
			c-5.788-5.2-12.123-9.457-19-12.772c-6.88-3.313-14.596-5.725-23.152-7.235C91.896,31.269,82.249,30.471,71.597,30.471
			L71.597,30.471z M77.259,183.857c-6.543,0-11.494-0.755-14.848-2.265c-3.356-1.51-5.684-4.109-6.983-7.801
			c-1.301-3.69-1.951-9.101-1.951-16.232V66.584c0-7.884,1.153-13.253,3.461-16.106c2.306-2.851,6.858-4.278,13.652-4.278
			c12.499,0,23.361,3.566,32.59,10.695c9.227,7.131,16.273,16.443,21.139,27.934c4.864,11.494,7.298,23.447,7.298,35.861
			c0,11.242-2.013,21.664-6.04,31.269c-4.026,9.606-10.151,17.323-18.371,23.152C98.984,180.943,89.002,183.857,77.259,183.857
			L77.259,183.857z"/>
		<path fill="#E52A26" d="M267.248,32.08l7.236,32.743c-2.813-4.165-5.827-7.794-9.009-10.842
			c-5.036-4.821-10.794-8.491-17.115-10.906l-0.028-0.011l-0.028-0.01c-6.276-2.255-13.393-3.399-21.154-3.399
			c-7.927,0-13.317,1.476-16.478,4.512c-3.195,3.069-4.748,8.174-4.748,15.606v12.99v3h3h16.111c5.612,0,9.888-0.51,13.072-1.56
			c3.593-1.183,6.199-3.239,7.745-6.11c0.234-0.435,0.451-0.893,0.651-1.374l5.014,30.571c-1.398-2.214-2.821-4.13-4.261-5.736
			c-3.257-3.631-7.125-6.217-11.498-7.687c-4.184-1.407-9.588-2.12-16.06-2.12h-10.774h-3v3v47.024
			c0,4.786,0.357,8.576,1.092,11.584c0.793,3.259,2.163,5.921,4.072,7.912c1.936,2.02,4.555,3.453,7.798,4.262
			c3.011,0.735,6.702,1.092,11.285,1.092c8.157,0,16.176-1.656,23.834-4.923c7.63-3.256,14.633-7.987,20.813-14.063
			c3.195-3.141,6.132-6.634,8.79-10.449l-12.149,36.656c-1.852-0.823-3.974-1.238-6.346-1.238H173.85
			c1.014-0.506,1.891-1.064,2.64-1.679c2.231-1.829,3.702-4.576,4.371-8.165c0.576-3.098,0.856-7.658,0.856-13.941V57.155
			c0-6.279-0.28-10.854-0.855-13.986c-0.67-3.634-2.149-6.391-4.4-8.194c-0.687-0.549-1.48-1.049-2.387-1.504h84.091
			C261.655,33.471,264.694,33.004,267.248,32.08 M269.342,27.651c-2.618,1.88-6.344,2.819-11.177,2.819h-91.632v3.726
			c3.691,0.739,6.376,1.779,8.055,3.121c1.677,1.344,2.785,3.474,3.323,6.395c0.537,2.92,0.806,7.401,0.806,13.442v81.664
			c0,6.042-0.269,10.507-0.806,13.392c-0.538,2.887-1.646,5.019-3.323,6.394c-1.679,1.377-4.364,2.467-8.055,3.273v3.726h98.58
			c3.356,0,6.007,0.972,7.955,2.92l17.521-52.865l-3.021-1.208c-3.962,8.191-8.912,15.205-14.853,21.045
			s-12.571,10.321-19.887,13.443c-7.318,3.122-14.87,4.682-22.656,4.682c-4.297,0-7.821-0.335-10.573-1.007
			c-2.686-0.67-4.8-1.812-6.344-3.423c-1.545-1.611-2.653-3.792-3.323-6.545c-0.672-2.752-1.007-6.377-1.007-10.875V84.746h10.774
			c6.176,0,11.21,0.654,15.104,1.963c3.893,1.309,7.3,3.592,10.221,6.847c2.92,3.257,5.755,7.872,8.509,13.846l2.618-0.403
			l-8.257-50.348l-2.618,0.806c-0.201,3.962-0.891,7.033-2.064,9.214c-1.175,2.182-3.189,3.743-6.042,4.682
			c-2.854,0.941-6.897,1.41-12.134,1.41h-16.111v-12.99c0-6.51,1.274-10.991,3.826-13.443c2.55-2.45,7.351-3.675,14.399-3.675
			c7.452,0,14.164,1.075,20.139,3.222c5.974,2.283,11.344,5.707,16.111,10.271c4.766,4.566,9.096,10.439,12.99,17.622l2.92-1.007
			L269.342,27.651L269.342,27.651z"/>
		<path fill="#E52A26" d="M437.831,33.471c-0.929,0.485-1.738,1.023-2.434,1.617c-2.124,1.814-3.575,4.565-4.313,8.175l-0.006,0.032
			l-0.006,0.032c-0.575,3.156-0.854,7.68-0.854,13.829v81.664c0,6.083,0.279,10.574,0.854,13.729l0.005,0.025l0.005,0.025
			c0.736,3.684,2.188,6.473,4.315,8.288c0.737,0.63,1.602,1.201,2.605,1.718H397.36c1.037-0.511,1.945-1.076,2.731-1.698
			c2.33-1.848,3.91-4.647,4.695-8.32c0.688-3.225,1.023-7.728,1.023-13.767V57.155c0-6.035-0.334-10.552-1.021-13.812
			c-0.787-3.721-2.376-6.529-4.725-8.348c-0.721-0.557-1.544-1.065-2.475-1.524H437.831 M445.1,30.471h-55.08v3.726
			c3.691,0.739,6.427,1.796,8.207,3.172c1.778,1.376,2.986,3.575,3.625,6.595c0.637,3.021,0.957,7.418,0.957,13.191v81.664
			c0,5.774-0.319,10.154-0.957,13.141c-0.639,2.988-1.847,5.186-3.625,6.595c-1.779,1.41-4.516,2.518-8.207,3.323v3.726h55.08
			v-3.726c-3.559-0.806-6.143-1.896-7.754-3.273c-1.611-1.375-2.719-3.574-3.322-6.595c-0.538-2.953-0.806-7.351-0.806-13.191
			V57.155c0-5.906,0.268-10.337,0.806-13.292c0.604-2.953,1.711-5.118,3.322-6.495c1.611-1.375,4.195-2.433,7.754-3.172V30.471
			L445.1,30.471z"/>
		<path fill="#E52A26" d="M720.416,33.471c-2.617,0.863-4.72,1.915-6.362,3.178l-0.051,0.039l-0.049,0.041
			c-2.62,2.199-4.399,5.522-5.289,9.876l-0.006,0.032l-0.006,0.032c-0.71,3.899-1.055,9.508-1.055,17.147v102.048
			c0,7.556,0.345,13.124,1.055,17.021l0.005,0.025l0.005,0.025c0.893,4.471,2.692,7.814,5.334,9.924
			c1.709,1.381,3.916,2.531,6.686,3.475h-40.871c3.097-1.191,5.476-2.529,7.218-4.054l0.049-0.043l0.048-0.045
			c2.378-2.273,3.984-5.499,4.775-9.592c0.714-3.708,1.061-9.182,1.061-16.736v-12.458c0-9.361-2.385-16.397-7.113-20.936
			l-84.054-78.895l-5.045-4.736l-0.008,6.919l-0.126,110.104c0,7.818,0.347,13.435,1.06,17.171c0.795,4.174,2.428,7.385,4.851,9.542
			c1.626,1.45,3.821,2.692,6.656,3.758h-39.321c2.784-0.933,4.983-2.06,6.657-3.406c2.699-2.168,4.498-5.517,5.347-9.956
			c0.755-3.96,1.122-9.556,1.122-17.108V63.815c0-7.46-0.346-12.949-1.057-16.779l-0.005-0.027l-0.005-0.027
			c-0.893-4.365-2.701-7.694-5.373-9.894c-1.725-1.42-4.008-2.617-6.918-3.618h69.483c-3.236,1.59-4.872,3.789-4.872,6.563
			c0,2.907,2.108,6.137,6.833,10.467L687.83,97.76l5.133,5.188V95.65V63.815c0-7.553-0.347-13.009-1.062-16.681
			c-0.798-4.081-2.429-7.244-4.851-9.404c-1.73-1.54-4.19-2.944-7.47-4.259H720.416 M725.948,30.471h-50.582v4.656
			c4.53,1.51,7.758,3.126,9.688,4.844c1.929,1.721,3.229,4.3,3.901,7.739c0.67,3.441,1.007,8.808,1.007,16.106V95.65l-46.809-47.312
			c-3.944-3.606-5.914-6.374-5.914-8.305c0-2.096,1.97-3.732,5.914-4.907l0.126-4.656H564.51v4.656
			c4.613,1.091,7.991,2.516,10.13,4.278c2.139,1.762,3.585,4.489,4.341,8.179c0.67,3.607,1.007,9.018,1.007,16.231v102.048
			c0,7.298-0.358,12.815-1.069,16.546c-0.714,3.734-2.139,6.46-4.278,8.179c-2.139,1.721-5.517,3.083-10.13,4.09v4.656h49.325
			v-4.656c-4.278-1.174-7.383-2.621-9.311-4.341c-1.931-1.718-3.23-4.341-3.901-7.864c-0.672-3.523-1.007-9.06-1.007-16.609
			l0.126-110.101l84.054,78.895c4.109,3.944,6.166,10.192,6.166,18.748v12.458c0,7.298-0.337,12.689-1.007,16.169
			c-0.672,3.482-1.972,6.146-3.901,7.99c-2.013,1.762-5.244,3.315-9.688,4.656l0.126,4.656h50.456v-4.656
			c-4.53-1.007-7.886-2.391-10.065-4.153c-2.099-1.677-3.524-4.404-4.278-8.179c-0.672-3.69-1.007-9.185-1.007-16.483V63.815
			c0-7.38,0.334-12.917,1.007-16.609c0.754-3.69,2.179-6.417,4.278-8.179c2.18-1.677,5.535-2.976,10.065-3.9V30.471L725.948,30.471z
			"/>
		<path fill="#E52A26" d="M339.596,31.457c7.516,0,14.634,0.786,21.157,2.335l0.064,0.015l0.065,0.012
			c3.371,0.646,5.729,0.96,7.211,0.96c3.077,0,5.799-0.642,8.142-1.916l4.755,29.346c-1.978-2.984-4.252-5.756-6.807-8.292
			c-4.635-4.599-9.88-8.225-15.59-10.779c-5.767-2.579-11.684-3.886-17.587-3.886c-7.359,0-13.751,1.799-18.999,5.348
			c-5.62,3.798-8.47,8.564-8.47,14.166c0,4.242,1.75,7.875,5.052,10.498c2.993,2.396,8.008,4.736,15.334,7.153l0.067,0.022
			l0.068,0.019l31.088,8.652c10.347,2.985,18.28,7.469,23.578,13.327c5.171,5.725,7.685,12.511,7.685,20.746
			c0,10.574-2.817,19.331-8.372,26.028c-5.656,6.819-13.116,11.844-22.173,14.935c-9.278,3.167-19.302,4.773-29.793,4.773
			c-7.123,0-13.712-0.619-19.584-1.841l-7.106-1.702l-0.107-0.026l-0.109-0.018c-3.485-0.568-6.146-0.845-8.136-0.845
			c-3.166,0-5.978,0.628-8.412,1.873l-3.733-22.728l1.965-5.913c2.967,4.419,6.413,8.253,10.296,11.449
			c9.301,7.598,20.78,11.451,34.12,11.451c6.512,0,12.593-1.047,18.075-3.112c5.609-2.112,10.143-5.099,13.477-8.878
			c3.505-3.972,5.282-8.434,5.282-13.263c0-5.796-2.082-10.511-6.189-14.014c-3.778-3.222-10.06-6.132-19.203-8.896l-29.309-8.863
			c-8.822-2.646-15.731-6.692-20.535-12.024c-4.732-5.25-7.032-11.18-7.032-18.13c0-8.918,2.282-16.262,6.784-21.827
			c4.58-5.663,10.64-9.797,18.01-12.285C322.237,32.759,330.639,31.457,339.596,31.457 M378.364,27.249
			c-2.484,3.021-5.908,4.531-10.271,4.531c-1.276,0-3.491-0.302-6.646-0.906c-6.781-1.611-14.064-2.417-21.851-2.417
			c-9.332,0-17.974,1.344-25.929,4.028c-7.955,2.686-14.417,7.099-19.384,13.241c-4.968,6.143-7.451,14.047-7.451,23.714
			c0,7.653,2.601,14.366,7.804,20.139c5.202,5.774,12.502,10.07,21.901,12.889l29.302,8.861c8.66,2.618,14.701,5.387,18.125,8.307
			c3.424,2.92,5.135,6.832,5.135,11.731c0,4.096-1.51,7.854-4.531,11.278c-3.021,3.424-7.116,6.109-12.285,8.056
			c-5.17,1.948-10.842,2.92-17.018,2.92c-12.688,0-23.429-3.59-32.222-10.774c-5.214-4.291-9.531-9.733-12.971-16.302l-4.268,12.845
			l4.652,28.328c2.618-2.82,6.143-4.229,10.573-4.229c1.812,0,4.363,0.269,7.653,0.806l7.149,1.712
			c6.108,1.274,12.854,1.913,20.24,1.913c10.875,0,21.129-1.646,30.762-4.934c9.632-3.288,17.471-8.575,23.513-15.859
			c6.042-7.283,9.062-16.597,9.062-27.943c0-8.927-2.82-16.514-8.458-22.757c-5.707-6.31-14.031-11.042-24.973-14.198l-31.115-8.66
			c-6.915-2.281-11.715-4.497-14.399-6.646c-2.618-2.08-3.927-4.799-3.927-8.156c0-4.564,2.382-8.458,7.149-11.681
			c4.766-3.222,10.538-4.833,17.319-4.833c5.503,0,10.958,1.208,16.363,3.625c5.403,2.417,10.304,5.808,14.702,10.17
			c4.396,4.365,7.87,9.399,10.422,15.104l2.92-0.403L378.364,27.249L378.364,27.249z"/>
		<path fill="#E52A26" d="M500.895,30.651c5.265,0,13.034,0.665,23.092,1.978c8.289,1.549,10.417,1.748,11.345,1.748
			c3.458,0,6.549-0.853,9.245-2.544l4.52,29.575c-3.848-6.048-8.653-11.022-14.358-14.85c-8.221-5.516-17.608-8.312-27.902-8.312
			c-8.816,0-16.858,2.352-23.903,6.989c-7.01,4.612-12.567,11.153-16.517,19.442c-3.901,8.192-5.879,17.519-5.879,27.722
			c0,10.183,2.24,20.337,6.657,30.178c4.446,9.911,10.832,18.123,18.979,24.408c8.287,6.395,17.814,9.637,28.315,9.637
			c5.589,0,9.948-0.747,13.325-2.283c3.631-1.65,6.288-4.329,7.896-7.96c1.494-3.371,2.22-7.754,2.22-13.399v-25.979
			c0-6.161-0.316-10.72-0.966-13.937c-0.741-3.666-2.243-6.433-4.466-8.223c-0.743-0.615-1.613-1.156-2.62-1.625h38.422
			c-0.778,0.359-1.457,0.757-2.042,1.196c-2.078,1.559-3.479,4.083-4.163,7.501c-0.581,2.903-0.863,7.312-0.863,13.477v35.042
			c0,5.987,0.21,10.21,0.641,12.91c0.513,3.212,1.741,5.691,3.651,7.37c0.758,0.665,1.699,1.294,2.837,1.895H514.69
			c-9.705,0-18.171-0.677-25.165-2.011c-6.879-1.311-13.163-3.478-18.676-6.442c-5.529-2.972-10.87-6.985-15.899-11.949
			c-6.181-5.98-11.051-12.728-14.483-20.065V62.429c2.946-5.92,6.814-11.098,11.504-15.397c5.706-5.23,12.754-9.305,20.947-12.111
			C481.191,32.088,490.603,30.651,500.895,30.651 M546.711,25.939c-2.955,3.625-6.746,5.438-11.379,5.438
			c-1.141,0-4.766-0.569-10.875-1.712c-10.27-1.342-18.125-2.014-23.562-2.014c-10.674,0-20.324,1.478-28.949,4.431
			c-8.627,2.955-15.96,7.2-22.002,12.738c-5.168,4.738-9.323,10.381-12.477,16.913v61.062c3.602,7.91,8.721,15.104,15.396,21.562
			c5.236,5.17,10.758,9.314,16.564,12.436c5.807,3.122,12.318,5.372,19.535,6.747c7.215,1.377,15.791,2.064,25.727,2.064h59.814
			v-3.726c-3.291-1.073-5.623-2.215-7-3.424c-1.375-1.208-2.266-3.071-2.668-5.588c-0.402-2.518-0.604-6.662-0.604-12.436v-35.042
			c0-5.906,0.268-10.203,0.805-12.889c0.537-2.684,1.545-4.582,3.021-5.689c1.477-1.107,3.961-1.929,7.451-2.467v-4.128h-52.764
			v4.128c3.625,0.538,6.242,1.477,7.854,2.819c1.678,1.344,2.82,3.509,3.424,6.495c0.604,2.988,0.906,7.436,0.906,13.342v25.979
			c0,5.17-0.654,9.231-1.963,12.184c-1.309,2.955-3.441,5.102-6.395,6.444c-2.955,1.344-6.982,2.014-12.084,2.014
			c-9.867,0-18.695-3.003-26.482-9.012c-7.787-6.007-13.812-13.76-18.074-23.26c-4.264-9.499-6.395-19.148-6.395-28.95
			c0-9.801,1.863-18.611,5.588-26.433c3.727-7.82,8.877-13.896,15.457-18.226c6.578-4.33,13.996-6.495,22.254-6.495
			c9.732,0,18.478,2.603,26.23,7.804c7.754,5.203,13.678,12.571,17.773,22.103l2.719-0.403L546.711,25.939L546.711,25.939z"/>
	</g>
	<path fill="#E52A26" d="M723.948,2v6.667H2V2H723.948 M725.948,0H0v10.667h725.948V0L725.948,0z"/>
	<path fill="#E52A26" d="M137.19,219.5v6.667H2V219.5H137.19 M139.19,217.5H0v10.667h139.19V217.5L139.19,217.5z"/>
	<path fill="#E52A26" d="M723.948,219.5v6.667H572.02V219.5H723.948 M725.948,217.5H570.02v10.667h155.928V217.5L725.948,217.5z"/>
</g>
</svg>
