<?xml version="1.0" encoding="utf-8"?>
<!-- Generator: Adobe Illustrator 17.1.0, SVG Export Plug-In . SVG Version: 6.00 Build 0)  -->
<!DOCTYPE svg PUBLIC "-//W3C//DTD SVG 1.1//EN" "http://www.w3.org/Graphics/SVG/1.1/DTD/svg11.dtd">
<svg version="1.1" id="Layer_1" xmlns="http://www.w3.org/2000/svg" xmlns:xlink="http://www.w3.org/1999/xlink" x="0px" y="0px"
	 viewBox="0 0 428.3 109.518" enable-background="new 0 0 428.3 109.518" xml:space="preserve">
<path fill="#FFFFFF" d="M31.006,6.443c3.259-0.917,7.641-1.272,13.142-1.069c5.501,0.205,9.372,0.866,11.614,1.986
	c2.24,1.223,4.023,3.362,5.348,6.418c0.917,2.345,1.375,3.847,1.375,4.508c0,0.664-0.511,1.708-1.528,3.133
	c-1.428,2.039-2.853,3.389-4.279,4.05c-1.428,0.664-3.515,0.993-6.265,0.993c-2.956,0-6.623,1.122-11.002,3.361
	c-2.956,1.528-4.966,2.827-6.036,3.897c-1.07,1.069-2.269,2.979-3.591,5.73c-1.325,2.547-2.166,4.66-2.521,6.341
	c-0.358,1.682-0.535,4.306-0.535,7.87c0,10.086,2.698,16.759,8.099,20.019c2.037,1.325,3.87,1.937,5.501,1.833
	c1.628-0.1,3.31-0.864,5.043-2.292c2.139-1.833,3.362-3.438,3.667-4.813c0.306-1.375-0.306-2.368-1.834-2.979
	c-1.937-0.712-4.305-3.08-7.105-7.105c-2.803-4.023-3.438-6.545-1.91-7.564c0.508-0.306,5.959-0.712,16.351-1.223
	c7.129-0.306,11.638-0.405,13.524-0.306c1.884,0.103,3.285,0.562,4.202,1.376c1.12,1.02,1.757,2.497,1.91,4.431
	c0.153,1.937,0.05,3.744-0.306,5.425c-0.358,1.682-0.943,4.076-1.757,7.183c-0.816,3.108-1.428,5.478-1.833,7.105
	c-1.223,6.112-3.744,11.028-7.564,14.746c-3.82,3.721-9.092,6.342-15.816,7.87h-0.153c-0.816,0.306-1.733,0.535-2.75,0.688
	c-1.02,0.153-2.65,0.306-4.89,0.458c-2.242,0.153-4.763-0.152-7.564-0.916c-2.803-0.765-5.578-2.011-8.328-3.744
	c-2.854-1.834-4.584-2.751-5.196-2.751c-1.222,0-3.235-1.654-6.036-4.966c-2.803-3.31-5.019-6.647-6.647-10.01
	c-3.159-6.315-4.916-13.879-5.272-22.692c-0.358-8.811,0.84-14.999,3.591-18.566c1.323-1.628,1.986-2.75,1.986-3.361
	c0-0.712,1.578-3.438,4.737-8.176c3.156-4.737,5.398-7.614,6.724-8.634C21.684,10.519,26.319,7.768,31.006,6.443z"/>
<path fill="#FFFFFF" d="M92.954,13.503c1.84-2.706,3.736-3.437,5.685-2.193c1.949,1.247,4.223,4.576,6.823,9.99
	c1.299,2.707,2.056,4.901,2.274,6.578c0.216,1.681,0.162,5.117-0.162,10.314c-0.434,5.523-1.112,10.883-2.03,16.081
	c-0.921,5.198-1.706,10.829-2.355,16.892c-0.974,8.772-2.005,14.241-3.086,16.406c-0.759,1.518-1.518,2.383-2.274,2.598
	c-0.759,0.219-2.871,0.272-6.335,0.163c-5.307-0.325-8.609-1.11-9.908-2.355c-1.3-1.244-1.949-4.358-1.949-9.34
	c0-5.413,0.378-10.611,1.137-15.593c2.599-16.568,4.683-28.101,6.254-34.598C88.594,21.948,90.571,16.969,92.954,13.503z"/>
<path fill="#FFFFFF" d="M369.942,10.111c2.139-6.01,3.564-9.27,4.278-9.78c1.018-0.711,2.393,0.306,4.126,3.057
	c0.712,1.223,1.223,2.039,1.528,2.444c0.306,0.408,0.864,0.664,1.681,0.765c0.814,0.103,1.629,0.053,2.445-0.153
	c0.814-0.203,2.419-0.405,4.813-0.611c2.393-0.202,5.066-0.306,8.022-0.306c5.093,0,9.321,0.817,12.684,2.445
	c4.99,2.548,8.404,6.089,10.238,10.62c1.833,4.534,1.884,9.653,0.152,15.357c-0.611,2.242-1.451,4.152-2.521,5.73
	c-1.069,1.581-2.879,3.644-5.425,6.189c-4.278,4.075-7.335,6.317-9.168,6.724c-2.039,0.511-3.415,1.352-4.126,2.521
	c-0.714,1.172-0.867,3.032-0.459,5.577c0.306,2.345,1.476,5.681,3.515,10.009c2.037,4.332,4.379,8.432,7.029,12.302
	c2.14,3.056,5.349,6.012,9.627,8.863c0.306,0.205,0.765,0.511,1.376,0.917c4.481,2.955,7.079,4.813,7.793,5.577
	c0.712,0.764,0.917,2.011,0.611,3.744c-0.103,0.306-0.152,0.508-0.152,0.611c-0.409,2.545-1.581,4.328-3.515,5.348
	c-2.039,1.018-5.249,1.502-9.628,1.452c-4.381-0.053-7.846-0.664-10.391-1.834c-2.548-1.172-6.521-4.534-11.919-10.085
	c-5.401-5.552-8.305-9.296-8.711-11.232c-0.306-1.222-0.917-2.674-1.833-4.354c-0.917-1.681-1.86-3.106-2.827-4.279
	c-0.97-1.17-1.657-1.654-2.063-1.451c-0.408,0.306-0.79,2.062-1.146,5.271c-0.358,3.209-1.02,6.292-1.987,9.245
	c-0.969,2.956-2.421,4.432-4.354,4.432c-1.733,0-3.465,1.323-5.195,3.974l-2.599,4.126l-9.474-6.419l0.611-9.779
	c0.203-3.87,0.482-6.824,0.84-8.863c0.356-2.036,0.738-3.642,1.146-4.813c0.406-1.17,1.12-3.691,2.14-7.564
	c1.017-3.87,2.139-8.607,3.361-14.211c0.406-1.731,1.17-4.508,2.292-8.328c1.12-3.82,1.935-7.156,2.445-10.01
	c0.509-2.851,0.559-5.501,0.152-7.945c-0.408-1.018-0.484-2.113-0.229-3.286c0.253-1.17,0.509-1.96,0.764-2.368
	c0.253-0.406,0.814-1.528,1.681-3.362C368.437,14.542,369.228,12.456,369.942,10.111z M398.211,25.392
	c-0.511-0.814-2.421-1.12-5.73-0.917c-3.312,0.205-5.577,0.714-6.8,1.527c-0.917,0.715-1.528,1.528-1.834,2.445
	s-0.458,2.65-0.458,5.195c0,4.076,0.306,6.318,0.917,6.724c1.322,0.715,4.176-1.299,8.558-6.035
	C397.242,29.594,399.026,26.614,398.211,25.392z"/>
<path fill="#FFFFFF" d="M176.735,2.776c-0.561-0.306-1.401-0.509-2.521-0.611c-1.123-0.101-2.395-0.153-3.82-0.153
	c-1.428,0-3.083,0.077-4.966,0.229c-1.886,0.153-3.644,0.282-5.272,0.382c-1.631,0.103-3.415,0.229-5.349,0.383
	c-1.937,0.152-3.567,0.229-4.89,0.229c-7.744,0.408-13.016,0.97-15.816,1.681c-2.803,0.715-5.577,2.345-8.328,4.891
	c-1.122,1.122-1.986,2.165-2.598,3.133c-0.611,0.969-1.172,2.497-1.681,4.584c-0.511,2.089-0.943,4.126-1.299,6.112
	c-0.358,1.986-0.943,5.375-1.757,10.162c-0.816,4.79-1.681,9.526-2.598,14.211c-0.006,0.028-0.011,0.054-0.017,0.082
	c-2.265,13.474-4.777,31.299-3.192,36.287c1.223,1.834,3.92,4.79,8.099,8.863c4.176,4.073,6.671,6.112,7.488,6.112
	c0.814,0,2.216-2.269,4.202-6.8c1.986-4.532,3.438-8.787,4.355-12.76c1.12-5.093,2.545-10.441,4.279-16.045
	c1.323-4.482,2.75-7.512,4.279-9.093c1.528-1.578,4.787-3.538,9.78-5.883c2.75-1.223,5.246-2.698,7.488-4.432
	c1.425-1.12,2.292-2.011,2.598-2.674c0.306-0.662,0.356-1.705,0.153-3.133c-0.408-2.14-1.046-3.462-1.91-3.974
	c-0.867-0.508-2.727-0.559-5.578-0.152c-3.261,0.306-5.146,0.053-5.654-0.765c-0.511-0.916,0-1.986,1.528-3.209
	c1.528-1.222,3.106-1.833,4.737-1.833c1.223,0,2.216-0.356,2.98-1.07c0.764-0.711,1.91-1.069,3.438-1.069
	c1.731,0,3.844-0.482,6.342-1.452c2.495-0.967,4.049-1.857,4.661-2.674c0.406-0.814,0.738-3.896,0.993-9.245
	c0.253-5.349,0.432-8.378,0.535-9.092C177.523,3.49,177.294,3.081,176.735,2.776z"/>
<path fill="#FFFFFF" d="M294.059,9.729c-0.521-0.284-1.3-0.472-2.34-0.567c-1.041-0.093-2.223-0.142-3.545-0.142
	c-1.325,0-2.861,0.072-4.609,0.213c-1.75,0.142-3.381,0.262-4.892,0.354c-1.086,0.068-2.271,0.153-3.502,0.245
	c-6.832,1.12-14.93,2.617-21.188,3.57c-2.719,0.414-4.762,1.156-6.306,2.046c-0.304,0.257-0.608,0.524-0.912,0.805
	c-1.041,1.041-1.843,2.009-2.411,2.907c-0.567,0.899-1.088,2.317-1.56,4.254c-0.474,1.938-0.875,3.829-1.205,5.672
	c-0.333,1.843-0.875,4.988-1.631,9.43c-0.758,4.445-1.56,8.84-2.411,13.188c-0.851,3.971-1.56,7.565-2.127,10.778
	c-0.567,3.214-1.017,5.909-1.348,8.083c-0.332,2.176-0.567,4.113-0.709,5.814c-0.141,1.701-0.237,2.978-0.284,3.829
	c-0.049,0.85,0.022,1.655,0.213,2.411c0.189,0.758,0.305,1.23,0.354,1.417c0.046,0.191,0.213,0.45,0.497,0.78
	c0.284,0.333,0.425,0.546,0.425,0.638c1.135,1.702,3.639,4.445,7.516,8.225c3.876,3.78,6.192,5.672,6.949,5.672
	c0.756,0,2.056-2.105,3.9-6.31c0.413-0.942,0.792-1.866,1.155-2.781c0.257-0.756,1.804-5.474,3.198-12.918
	c0.169-1.401,0.431-3.093,0.832-4.941c0.002-0.014,0.004-0.026,0.006-0.04c0.08-0.541,0.197-1.037,0.331-1.446
	c1.609-6.459,4.961-14.598,11.957-17.598h-0.003c0,0,0.01,0.039,0.012,0.038c0.938-0.45,1.943-0.799,3.016-1.079
	c1.584-0.603,3.398-1.328,4.448-1.907c1.067-0.644,2.088-1.328,3.053-2.075c1.323-1.039,2.128-1.863,2.411-2.479
	c0.284-0.615,0.33-1.581,0.141-2.906c-0.379-1.986-0.971-3.212-1.773-3.687c-0.708-0.415-2.136-0.5-4.275-0.256
	c-0.082,0.021-10.697,2.745-9.205-3.348c0.204-1.554,4.536-3.336,19.244-4.74c0.474-0.154,0.959-0.321,1.468-0.518
	c2.315-0.897,3.758-1.724,4.326-2.481c0.377-0.756,0.685-3.616,0.922-8.579c0.235-4.964,0.401-7.775,0.497-8.437
	C294.791,10.392,294.578,10.013,294.059,9.729z"/>
<path fill="#FFFFFF" d="M346.612,32.786c-0.89-0.522-2.801-0.574-5.73-0.156c-1.015,0.095-1.883,0.131-2.638,0.121l-0.01,0.006
	c0,0-4.805,0.714-5.748-1.602l-0.009,0.002c0,0-0.71-1.596,0.36-2.922c0.022-0.032,0.047-0.064,0.071-0.097
	c0.017-0.02,0.026-0.041,0.044-0.06c0.003-0.003,0.007-0.005,0.01-0.008c0.619-0.788,2.03-1.857,5.273-2.834
	c6.083-1.833,19.156-4.063,20.416-5.75c0,0,1.199-0.639,1.411-3.153c0.135-1.476,0.258-3.329,0.367-5.603
	c0.26-5.495,0.444-8.607,0.55-9.341c0.096-0.487-0.114-0.88-0.606-1.186c-0.19,0.121-0.451,0.163-0.803,0.097
	c-2.769-0.519-7.044-0.294-8.419,0.145s-2.75,0.489-2.75,0.489c-7.938,0.116-15.681-0.331-15.681-0.331
	c-0.911,0.048-1.784,0.098-2.628,0.151c1.229,0.547,0.287,1.11-4.539,1.632c-16.727,1.808-21.878,13.565-22.659,15.63
	c-0.26,1.198-0.501,2.383-0.709,3.547c-0.368,2.041-0.969,5.522-1.806,10.44c-0.839,4.921-1.727,9.787-2.669,14.6
	c-0.942,4.396-1.727,8.375-2.355,11.932c-0.628,3.559-1.126,6.542-1.492,8.948c-0.367,2.409-0.628,4.553-0.785,6.437
	c-0.156,1.883-0.263,3.297-0.314,4.239c-0.054,0.941,0.024,1.832,0.236,2.669c0.209,0.839,0.338,1.362,0.392,1.569
	c0.051,0.212,0.236,0.499,0.55,0.864c0.314,0.368,0.471,0.604,0.471,0.706c1.256,1.884,4.028,4.921,8.32,9.106
	c0.743,0.725,1.416,1.364,2.055,1.963c0.917,0.813,6.018,4.996,8.66,0.131c0.134-0.272,0.271-0.56,0.412-0.859
	c0.076-0.173,0.15-0.331,0.219-0.467c0.214-0.465,0.434-0.95,0.664-1.474c2.041-4.656,3.533-9.028,4.475-13.109
	c1.15-5.232,2.615-10.727,4.395-16.484c1.359-4.605,2.826-7.717,4.395-9.342c1.57-1.621,4.919-3.635,10.048-6.044
	c2.826-1.256,5.39-2.772,7.692-4.553c1.465-1.151,2.356-2.066,2.67-2.747c0.314-0.68,0.365-1.752,0.156-3.219
	C348.155,34.671,347.5,33.312,346.612,32.786z"/>
<path fill="#FFFFFF" d="M235.429,6.533c-1.886-0.253-4.254-0.306-7.105-0.152c-2.854,0.152-5.807,0.332-8.863,0.534
	c-3.056,0.206-5.63,0.383-7.717,0.535c-2.089,0.153-3.338,0.129-3.743-0.076c-0.206-0.101-1.528-0.101-3.974,0
	c-2.445,0.103-5.425,0.561-8.939,1.375c-3.515,0.816-6.188,1.986-8.022,3.515c-1.325,1.223-2.318,2.292-2.979,3.209
	c-0.664,0.917-1.275,2.498-1.834,4.737c-0.561,2.242-1.02,4.458-1.375,6.647c-0.358,2.191-1.02,6.139-1.986,11.843
	c-0.969,5.706-2.013,11.514-3.133,17.421c-0.714,3.464-1.299,6.47-1.757,9.016c-0.458,2.548-0.84,4.84-1.146,6.876
	c-0.306,2.039-0.378,3.744-0.581,5.119c-0.205,1.376-0.122,2.65-0.122,3.82c0,1.173,0,2.039,0,2.598
	c0,0.562-0.056,1.173,0.199,1.834c0.253,0.664,0.341,1.069,0.443,1.223c0.101,0.152,0.337,0.535,0.795,1.146
	c0.458,0.61,0.765,1.02,0.97,1.222c0.773,1.135,1.523,2.206,2.274,3.217c0.007,0.006,9.901,8.884,13.893,9.381
	c0.616-1.12,1.355-2.767,2.227-4.957c1.781-4.481,3.131-8.607,4.048-12.377c2.954-12.631,5.295-20.577,7.029-23.839
	c0.509-1.018,3.947-3.285,10.314-6.8c3.592-1.983,6.219-3.487,7.882-4.513h0h0c0.203-0.125,0.388-0.241,0.562-0.352
	c0.703-0.676,1.971-2.67,3.254-8.594c-0.057-1.135-0.312-1.874-0.772-2.204c-0.817-0.509-2.956-0.765-6.418-0.765
	c-1.937,0-3.286-0.126-4.05-0.382c-0.764-0.253-1.249-0.737-1.452-1.452c-0.205-1.017,0.712-1.986,2.751-2.903
	c2.037-0.917,4.379-1.628,7.029-2.139c2.647-0.509,5.271-1.17,7.87-1.987c2.598-0.813,4.252-1.681,4.966-2.598
	c0.611-0.711,1.07-3.691,1.375-8.939c0.306-5.245,0.509-8.175,0.611-8.786C238.154,7.273,237.314,6.789,235.429,6.533z"/>
</svg>
