<?xml version="1.0" encoding="utf-8"?>
<!-- Generator: Adobe Illustrator 17.1.0, SVG Export Plug-In . SVG Version: 6.00 Build 0)  -->
<!DOCTYPE svg PUBLIC "-//W3C//DTD SVG 1.1//EN" "http://www.w3.org/Graphics/SVG/1.1/DTD/svg11.dtd">
<svg version="1.1" id="Layer_1" xmlns="http://www.w3.org/2000/svg" xmlns:xlink="http://www.w3.org/1999/xlink" x="0px" y="0px"
	 viewBox="0 0 302.346 79.334" enable-background="new 0 0 302.346 79.334" xml:space="preserve">
<path fill="#FFFFFF" d="M12.85,1.4l8.65,24.9h0.1l8.8-24.9H42.9v0.7H38.3v34.2H42.9V37H26.5v-0.7h4.55V2.1h-0.1L18.65,37h-0.8
	L5.5,2.1H5.4v34.2H10V37H0v-0.7h4.6V2.1H0V1.4H12.85z"/>
<path fill="#FFFFFF" d="M61.189,1.4v0.7h-4.6v34.2h4.6V37H44.74v-0.7h4.6V2.1h-4.6V1.4H61.189z"/>
<path fill="#FFFFFF" d="M64.484,25.9c0.066,0.4,0.184,0.925,0.35,1.575c0.167,0.65,0.408,1.35,0.726,2.1
	c0.316,0.75,0.716,1.517,1.2,2.3c0.482,0.784,1.074,1.509,1.775,2.175c0.766,0.767,1.508,1.35,2.225,1.75
	c0.717,0.4,1.4,0.692,2.05,0.875c0.649,0.184,1.267,0.284,1.851,0.3C75.242,36.992,75.785,37,76.285,37
	c1.766,0,3.216-0.275,4.35-0.825c1.133-0.55,2.025-1.225,2.675-2.025c0.649-0.8,1.108-1.641,1.375-2.525
	c0.267-0.883,0.399-1.658,0.399-2.325c0-1.233-0.291-2.25-0.875-3.05c-0.583-0.8-1.357-1.466-2.324-2
	c-0.967-0.533-2.067-0.983-3.301-1.35c-1.232-0.366-2.5-0.741-3.799-1.125c-1.301-0.383-2.568-0.833-3.801-1.35
	c-1.233-0.516-2.334-1.183-3.3-2c-0.968-0.816-1.742-1.825-2.325-3.025c-0.584-1.2-0.875-2.7-0.875-4.5
	c0-1.333,0.301-2.616,0.9-3.85c0.6-1.233,1.433-2.325,2.5-3.275c1.066-0.95,2.342-1.716,3.824-2.3
	C73.192,0.892,74.801,0.6,76.535,0.6c1.1,0,2.066,0.1,2.899,0.3c0.833,0.2,1.566,0.409,2.2,0.625
	c0.633,0.217,1.191,0.425,1.675,0.625c0.483,0.2,0.925,0.3,1.325,0.3c0.467,0,0.775-0.075,0.925-0.225
	c0.149-0.15,0.308-0.425,0.476-0.825h0.799v9.5h-0.649c-0.399-1.167-0.825-2.316-1.274-3.45c-0.451-1.133-1.025-2.158-1.726-3.075
	c-0.7-0.917-1.583-1.658-2.649-2.225c-1.068-0.566-2.418-0.85-4.051-0.85c-1.334,0-2.508,0.184-3.525,0.55
	c-1.017,0.367-1.875,0.85-2.574,1.45c-0.7,0.6-1.234,1.267-1.6,2c-0.367,0.734-0.551,1.484-0.551,2.25
	c0,1.167,0.309,2.134,0.926,2.9c0.615,0.767,1.424,1.425,2.424,1.975c1,0.55,2.143,1.025,3.426,1.425
	c1.283,0.4,2.6,0.817,3.949,1.25c1.351,0.434,2.667,0.909,3.951,1.425c1.282,0.517,2.424,1.175,3.424,1.975s1.809,1.767,2.426,2.9
	c0.616,1.134,0.925,2.534,0.925,4.2c0,1.633-0.333,3.184-1,4.65c-0.667,1.467-1.608,2.75-2.825,3.85
	c-1.217,1.1-2.667,1.975-4.35,2.625c-1.684,0.65-3.559,0.975-5.625,0.975c-1.033,0-2.059-0.1-3.075-0.3
	c-1.017-0.2-1.968-0.408-2.851-0.625c-0.883-0.216-1.666-0.425-2.35-0.625c-0.684-0.2-1.191-0.3-1.525-0.3
	c-0.467,0-0.799,0.075-1,0.225c-0.199,0.15-0.383,0.458-0.549,0.925h-0.801V25.9H64.484z"/>
<path fill="#FFFFFF" d="M101.034,2.1c-1.233,0-2.334,0.125-3.3,0.375c-0.968,0.25-1.834,0.684-2.601,1.3
	c-0.767,0.617-1.45,1.475-2.05,2.575c-0.6,1.1-1.15,2.5-1.65,4.2h-0.649V1.4h31.35v9.15h-0.649c-0.5-1.7-1.051-3.1-1.65-4.2
	s-1.283-1.958-2.05-2.575c-0.768-0.616-1.634-1.05-2.601-1.3c-0.967-0.25-2.066-0.375-3.3-0.375h-1.8v34.2h4.6V37H98.234v-0.7h4.6
	V2.1H101.034z"/>
<path fill="#FFFFFF" d="M122.033,36.3l14.9-36.3h1.35l15.75,36.3h4.301V37h-16.801v-0.7h4.65l-5.801-13.4h-12l-5.549,13.4h4.449V37
	h-9.449v-0.7H122.033z M128.633,22.2h11.5l-5.899-13.65L128.633,22.2z"/>
<path fill="#FFFFFF" d="M174.287,1.4v0.7h-4.6v16h0.4l15.3-16h-5.05V1.4h10v0.7h-4l-11.15,11.7l17.301,22.5h3.1V37h-16.7v-0.7h4.5
	l-13.3-17.5h-0.4v17.5h4.6V37h-16.449v-0.7h4.6V2.1h-4.6V1.4H174.287z"/>
<path fill="#FFFFFF" d="M225.062,1.4v8.55h-0.649c-0.167-0.566-0.45-1.292-0.851-2.175c-0.399-0.883-0.958-1.741-1.674-2.575
	c-0.718-0.833-1.643-1.558-2.775-2.175c-1.134-0.616-2.518-0.925-4.15-0.925h-7.949v15.45h2.799c1.233,0,2.275-0.175,3.125-0.525
	c0.851-0.35,1.559-0.85,2.125-1.5c0.566-0.65,1.033-1.433,1.4-2.35c0.367-0.916,0.666-1.941,0.9-3.075h0.65v15.55h-0.65
	c-0.234-0.966-0.509-1.9-0.825-2.8c-0.317-0.9-0.742-1.691-1.274-2.375c-0.534-0.683-1.193-1.225-1.976-1.625
	c-0.784-0.4-1.759-0.6-2.925-0.6h-3.35V36.3h8.199c1.533,0,2.916-0.258,4.15-0.775c1.232-0.516,2.324-1.241,3.275-2.175
	c0.949-0.933,1.74-2.025,2.375-3.275c0.633-1.25,1.115-2.592,1.449-4.025h0.65V37h-31.95v-0.7h4.601V2.1h-4.601V1.4H225.062z"/>
<path fill="#FFFFFF" d="M241.012,1.4l16.65,23.8h0.1V2.1h-4.6V1.4h10v0.7h-4.6V37h-1.35l-22.5-32.05h-0.101V36.3h4.601V37h-10v-0.7
	h4.6V2.1h-4.6V1.4H241.012z"/>
<g>
	<path fill="#FFFFFF" d="M276.965,13.182c0.288-1.047,0.694-2.022,1.219-2.923c0.522-0.902,1.119-1.692,1.786-2.369
		c0.667-0.677,1.389-1.208,2.166-1.597c0.774-0.387,1.552-0.582,2.327-0.582c0.469,0,0.866,0.067,1.191,0.203
		c0.325,0.135,0.597,0.307,0.811,0.514c0.218,0.208,0.375,0.433,0.474,0.677c0.1,0.244,0.149,0.474,0.149,0.691
		c0,0.307-0.086,0.613-0.257,0.92c-0.172,0.307-0.492,0.46-0.962,0.46c-0.397,0-0.681-0.076-0.852-0.23
		c-0.173-0.153-0.259-0.329-0.259-0.528c0-0.18,0.037-0.338,0.109-0.474c0.072-0.135,0.149-0.261,0.229-0.379
		c0.082-0.117,0.153-0.23,0.218-0.338c0.062-0.109,0.095-0.234,0.095-0.379c0-0.307-0.104-0.509-0.312-0.609
		c-0.206-0.099-0.446-0.149-0.716-0.149c-0.813,0-1.525,0.253-2.14,0.758c-0.614,0.506-1.137,1.11-1.569,1.814
		c-0.434,0.703-0.785,1.421-1.057,2.152c-0.271,0.73-0.469,1.331-0.595,1.8l-0.568,2.058h3.329l-0.108,0.378h-3.329l-2.409,9.176
		c-0.307,1.155-0.695,2.274-1.163,3.357c-0.47,1.083-1.007,2.039-1.611,2.869c-0.603,0.83-1.264,1.493-1.976,1.99
		c-0.713,0.496-1.466,0.744-2.259,0.744c-0.235,0-0.483-0.027-0.745-0.082c-0.263-0.054-0.501-0.149-0.717-0.284
		c-0.217-0.135-0.397-0.316-0.542-0.542c-0.144-0.225-0.217-0.519-0.217-0.879c0-0.343,0.104-0.641,0.311-0.893
		c0.207-0.253,0.527-0.379,0.961-0.379c0.235,0,0.424,0.045,0.568,0.136c0.145,0.09,0.216,0.279,0.216,0.568
		c0,0.199-0.044,0.402-0.135,0.609c-0.091,0.207-0.136,0.438-0.136,0.69c0,0.234,0.078,0.406,0.23,0.514
		c0.154,0.108,0.349,0.162,0.582,0.162c0.758,0,1.485-0.518,2.179-1.556c0.694-1.038,1.358-2.712,1.99-5.021l2.978-11.179h-2.572
		l0.109-0.378h2.57L276.965,13.182z"/>
	<path fill="#FFFFFF" d="M280.363,18.988c0.452-0.947,1.026-1.764,1.72-2.45c0.696-0.686,1.467-1.227,2.315-1.624
		c0.848-0.396,1.659-0.595,2.435-0.595c0.705,0,1.317,0.144,1.841,0.433c0.523,0.289,0.956,0.659,1.3,1.109
		c0.342,0.452,0.594,0.948,0.757,1.489c0.163,0.541,0.244,1.065,0.244,1.57c0,1.046-0.227,2.035-0.677,2.964
		c-0.451,0.93-1.02,1.746-1.706,2.45c-0.687,0.704-1.448,1.259-2.286,1.665c-0.839,0.406-1.639,0.609-2.397,0.609
		c-0.648,0-1.232-0.127-1.745-0.379c-0.515-0.252-0.957-0.586-1.326-1.002c-0.37-0.414-0.654-0.897-0.853-1.448
		c-0.198-0.55-0.298-1.132-0.298-1.746C279.688,20.95,279.914,19.935,280.363,18.988z M282.138,25.593
		c0.441,0.442,1.007,0.663,1.693,0.663c0.558,0,1.081-0.162,1.568-0.487c0.487-0.325,0.93-0.753,1.326-1.286
		c0.398-0.532,0.748-1.123,1.056-1.773c0.308-0.649,0.564-1.299,0.772-1.949c0.208-0.649,0.365-1.263,0.474-1.84
		c0.109-0.578,0.163-1.046,0.163-1.408c0-0.866-0.186-1.552-0.555-2.057c-0.37-0.505-1.016-0.758-1.936-0.758
		c-0.523,0-1.02,0.154-1.489,0.46c-0.47,0.308-0.897,0.709-1.285,1.205c-0.389,0.497-0.736,1.06-1.043,1.691
		c-0.307,0.632-0.564,1.277-0.77,1.936c-0.208,0.659-0.366,1.299-0.475,1.922c-0.107,0.622-0.162,1.168-0.162,1.637
		C281.475,24.469,281.695,25.15,282.138,25.593z"/>
	<path fill="#FFFFFF" d="M294.717,16.511c0.144-0.487,0.288-0.974,0.433-1.461h-2.355l0.108-0.378h4.169
		c-0.091,0.378-0.221,0.857-0.393,1.434c-0.171,0.578-0.356,1.137-0.556,1.678l0.055,0.054c0.18-0.271,0.406-0.596,0.677-0.975
		c0.272-0.378,0.578-0.745,0.92-1.096c0.343-0.352,0.723-0.65,1.138-0.894c0.415-0.243,0.858-0.365,1.326-0.365
		c0.668,0,1.178,0.19,1.529,0.568c0.352,0.379,0.52,0.785,0.5,1.218c0,0.289-0.049,0.528-0.148,0.718
		c-0.099,0.189-0.226,0.334-0.379,0.433c-0.152,0.1-0.311,0.168-0.473,0.204c-0.163,0.036-0.316,0.054-0.462,0.054
		c-0.251,0-0.459-0.062-0.622-0.189c-0.162-0.126-0.244-0.315-0.244-0.568c0-0.199,0.042-0.348,0.124-0.447
		c0.08-0.099,0.166-0.194,0.256-0.284c0.091-0.09,0.177-0.19,0.257-0.298c0.081-0.108,0.122-0.253,0.122-0.434
		c0-0.18-0.072-0.325-0.216-0.433c-0.145-0.108-0.325-0.162-0.543-0.162c-0.342,0-0.738,0.176-1.191,0.528
		c-0.449,0.352-0.896,0.803-1.338,1.353c-0.443,0.551-0.863,1.178-1.259,1.881c-0.397,0.704-0.722,1.407-0.975,2.111l-1.948,5.522
		h-1.895l2.923-8.337C294.418,17.476,294.571,16.998,294.717,16.511z"/>
</g>
<path fill="#FFFFFF" d="M2.2,67.534c0.066,0.4,0.183,0.925,0.35,1.575c0.167,0.65,0.408,1.35,0.725,2.1
	c0.316,0.75,0.716,1.517,1.2,2.3c0.483,0.784,1.075,1.509,1.775,2.175c0.766,0.768,1.508,1.35,2.225,1.75
	c0.717,0.4,1.4,0.692,2.05,0.875c0.65,0.184,1.266,0.284,1.85,0.3c0.582,0.017,1.125,0.025,1.625,0.025
	c1.766,0,3.216-0.275,4.35-0.825c1.133-0.55,2.025-1.225,2.675-2.025c0.65-0.8,1.108-1.641,1.375-2.525
	c0.266-0.883,0.4-1.658,0.4-2.325c0-1.232-0.292-2.25-0.875-3.05c-0.583-0.8-1.358-1.466-2.325-2c-0.967-0.533-2.067-0.983-3.3-1.35
	c-1.233-0.366-2.5-0.741-3.8-1.125c-1.3-0.383-2.567-0.833-3.8-1.35c-1.233-0.516-2.333-1.183-3.3-2
	c-0.967-0.816-1.742-1.825-2.325-3.025c-0.583-1.2-0.875-2.7-0.875-4.5c0-1.333,0.3-2.616,0.9-3.85c0.6-1.232,1.433-2.325,2.5-3.275
	c1.066-0.95,2.342-1.716,3.825-2.3c1.483-0.583,3.091-0.875,4.825-0.875c1.1,0,2.066,0.1,2.9,0.3c0.833,0.2,1.566,0.409,2.2,0.625
	c0.633,0.217,1.191,0.425,1.675,0.625c0.483,0.2,0.925,0.3,1.325,0.3c0.467,0,0.775-0.075,0.925-0.225
	c0.15-0.15,0.308-0.425,0.475-0.825h0.8v9.5H23.9c-0.4-1.167-0.825-2.316-1.275-3.45c-0.45-1.133-1.025-2.158-1.725-3.075
	c-0.7-0.917-1.583-1.658-2.65-2.225c-1.067-0.566-2.418-0.85-4.05-0.85c-1.333,0-2.508,0.184-3.525,0.55
	c-1.017,0.367-1.875,0.85-2.575,1.45c-0.7,0.6-1.233,1.268-1.6,2c-0.367,0.734-0.55,1.484-0.55,2.25c0,1.168,0.308,2.134,0.925,2.9
	C7.491,52.852,8.3,53.509,9.3,54.059c1,0.55,2.142,1.025,3.425,1.425c1.283,0.4,2.6,0.817,3.95,1.25
	c1.35,0.434,2.667,0.909,3.95,1.425c1.283,0.517,2.425,1.175,3.425,1.975c1,0.8,1.808,1.767,2.425,2.9
	c0.617,1.134,0.925,2.534,0.925,4.2c0,1.633-0.333,3.184-1,4.65c-0.667,1.467-1.609,2.75-2.825,3.85
	c-1.217,1.1-2.667,1.975-4.35,2.625c-1.684,0.65-3.559,0.975-5.625,0.975c-1.033,0-2.059-0.1-3.075-0.3
	c-1.017-0.2-1.967-0.408-2.85-0.625c-0.884-0.216-1.667-0.425-2.35-0.625c-0.684-0.2-1.192-0.3-1.525-0.3
	c-0.467,0-0.8,0.075-1,0.225c-0.2,0.15-0.384,0.459-0.55,0.925h-0.8v-11.1H2.2z"/>
<path fill="#FFFFFF" d="M38.75,43.734c-1.234,0-2.334,0.125-3.301,0.375c-0.967,0.25-1.833,0.684-2.6,1.3
	c-0.767,0.617-1.45,1.475-2.05,2.575c-0.6,1.1-1.15,2.5-1.65,4.2h-0.65v-9.15h31.35v9.15h-0.65c-0.5-1.7-1.05-3.1-1.65-4.2
	c-0.6-1.1-1.283-1.958-2.049-2.575c-0.768-0.616-1.635-1.05-2.601-1.3c-0.968-0.25-2.067-0.375-3.3-0.375h-1.801v34.2h4.601v0.7
	h-16.45v-0.7h4.6v-34.2H38.75z"/>
<path fill="#FFFFFF" d="M61.709,43.734v-0.7h7.55c1.4,0,2.783-0.025,4.15-0.075c1.366-0.05,2.75-0.075,4.149-0.075
	c1.301,0,2.676,0.134,4.125,0.4c1.45,0.267,2.775,0.725,3.976,1.375c1.2,0.65,2.191,1.525,2.975,2.625
	c0.783,1.1,1.175,2.484,1.175,4.15c0,1.334-0.3,2.475-0.899,3.425c-0.601,0.95-1.375,1.725-2.325,2.325
	c-0.95,0.6-2.009,1.059-3.175,1.375c-1.167,0.317-2.317,0.525-3.45,0.625v0.25c1.633,0.3,3.092,0.6,4.375,0.9
	c1.283,0.3,2.392,0.75,3.325,1.35c0.933,0.6,1.675,1.434,2.225,2.5c0.55,1.067,0.892,2.5,1.025,4.3c0.166,2.1,0.3,3.784,0.399,5.05
	c0.101,1.267,0.242,2.25,0.426,2.95c0.183,0.7,0.433,1.167,0.75,1.4c0.316,0.233,0.774,0.35,1.375,0.35
	c0.666,0,1.216-0.191,1.649-0.575c0.433-0.383,0.816-0.741,1.15-1.075l0.5,0.45c-0.334,0.333-0.659,0.642-0.976,0.925
	c-0.316,0.283-0.684,0.525-1.1,0.725c-0.417,0.2-0.925,0.358-1.525,0.475c-0.6,0.117-1.35,0.175-2.25,0.175
	c-1.833,0-3.267-0.292-4.3-0.875c-1.033-0.583-1.8-1.308-2.3-2.175c-0.5-0.866-0.809-1.808-0.925-2.825
	c-0.117-1.017-0.192-1.975-0.226-2.875c-0.066-1.367-0.158-2.691-0.274-3.975c-0.117-1.283-0.393-2.425-0.825-3.425
	c-0.434-1-1.084-1.8-1.95-2.4c-0.867-0.6-2.083-0.9-3.649-0.9h-3.301v18.05h4.601v0.7h-16.45v-0.7h4.6v-34.2H61.709z M75.609,59.184
	c1.5,0,2.683-0.2,3.55-0.6c0.866-0.4,1.517-0.941,1.95-1.625c0.433-0.683,0.707-1.458,0.824-2.325
	c0.117-0.866,0.176-1.75,0.176-2.65c0-1.466-0.101-2.725-0.301-3.775c-0.199-1.05-0.533-1.917-1-2.6
	c-0.467-0.683-1.108-1.191-1.925-1.525c-0.817-0.333-1.858-0.5-3.125-0.5c-0.367,0-0.733,0.017-1.1,0.05
	c-0.367,0.034-0.733,0.067-1.101,0.1v15.45H75.609z"/>
<path fill="#FFFFFF" d="M100.334,77.934l14.899-36.3h1.351l15.75,36.3h4.299v0.7h-16.799v-0.7h4.649l-5.8-13.4h-12l-5.551,13.4
	h4.451v0.7h-9.451v-0.7H100.334z M106.934,63.834h11.5l-5.9-13.65L106.934,63.834z"/>
<path fill="#FFFFFF" d="M147.748,43.034l16.649,23.8h0.101v-23.1h-4.601v-0.7h10v0.7h-4.601v34.9h-1.35l-22.5-32.05h-0.1v31.35h4.6
	v0.7h-10v-0.7h4.6v-34.2h-4.6v-0.7H147.748z"/>
<path fill="#FFFFFF" d="M199.957,53.234c-0.867-3.267-2.167-5.808-3.9-7.625c-1.733-1.816-4.049-2.708-6.949-2.675
	c-2.301,0-4.15,0.442-5.551,1.325c-1.399,0.884-2.475,2.034-3.225,3.45c-0.75,1.417-1.242,3.033-1.475,4.85
	c-0.234,1.817-0.35,3.659-0.35,5.525v4.35c0,3.034,0.199,5.584,0.6,7.65c0.4,2.067,1.025,3.733,1.875,5
	c0.85,1.267,1.949,2.175,3.3,2.725c1.35,0.55,2.958,0.825,4.825,0.825c1.533,0,2.75-0.275,3.65-0.825
	c0.899-0.55,1.591-1.3,2.074-2.25c0.482-0.95,0.791-2.075,0.926-3.375c0.133-1.3,0.199-2.716,0.199-4.25v-1.9h-5.15v-0.7h15.451v0.7
	h-3.25v11.45h-0.9c-0.067-0.4-0.259-0.691-0.575-0.875c-0.317-0.183-0.675-0.275-1.075-0.275c-0.8,0-1.559,0.158-2.275,0.475
	c-0.717,0.317-1.492,0.659-2.324,1.025c-0.834,0.367-1.793,0.709-2.875,1.025c-1.084,0.316-2.393,0.475-3.926,0.475
	c-2.434,0-4.783-0.475-7.049-1.425c-2.268-0.95-4.26-2.25-5.975-3.9c-1.718-1.65-3.093-3.591-4.125-5.825
	c-1.034-2.232-1.55-4.65-1.55-7.25c0-2.832,0.574-5.4,1.725-7.7c1.15-2.3,2.625-4.267,4.426-5.9
	c1.799-1.633,3.807-2.892,6.025-3.775c2.216-0.883,4.392-1.325,6.524-1.325c1,0,1.967,0.1,2.9,0.3c0.934,0.2,1.801,0.409,2.6,0.625
	c0.801,0.217,1.517,0.425,2.15,0.625c0.633,0.2,1.166,0.3,1.6,0.3c0.467,0,0.801-0.075,1-0.225c0.201-0.15,0.383-0.425,0.551-0.825
	h0.85v10.2H199.957z"/>
<path fill="#FFFFFF" d="M235.752,43.034v8.55h-0.649c-0.167-0.566-0.45-1.292-0.851-2.175c-0.399-0.883-0.958-1.741-1.674-2.575
	c-0.718-0.833-1.643-1.558-2.775-2.175c-1.134-0.616-2.518-0.925-4.15-0.925h-7.949v15.45h2.799c1.233,0,2.275-0.175,3.125-0.525
	c0.851-0.35,1.559-0.85,2.125-1.5s1.033-1.433,1.4-2.35c0.367-0.916,0.666-1.941,0.9-3.075h0.65v15.55h-0.65
	c-0.234-0.966-0.509-1.9-0.825-2.8c-0.317-0.9-0.742-1.691-1.274-2.375c-0.534-0.683-1.193-1.225-1.976-1.625
	c-0.784-0.4-1.759-0.6-2.925-0.6h-3.35v18.05h8.199c1.533,0,2.916-0.258,4.15-0.775c1.232-0.516,2.324-1.241,3.275-2.175
	c0.949-0.933,1.74-2.025,2.375-3.275c0.633-1.25,1.115-2.592,1.449-4.025h0.65v10.95h-31.95v-0.7h4.601v-34.2h-4.601v-0.7H235.752z"
	/>
<path fill="#FFFFFF" d="M239.856,43.734v-0.7h7.55c1.4,0,2.783-0.025,4.15-0.075c1.366-0.05,2.75-0.075,4.15-0.075
	c1.299,0,2.674,0.134,4.125,0.4c1.449,0.267,2.774,0.725,3.975,1.375c1.199,0.65,2.191,1.525,2.975,2.625
	c0.783,1.1,1.176,2.484,1.176,4.15c0,1.334-0.301,2.475-0.9,3.425c-0.6,0.95-1.375,1.725-2.325,2.325
	c-0.95,0.6-2.009,1.059-3.175,1.375c-1.168,0.317-2.317,0.525-3.45,0.625v0.25c1.633,0.3,3.091,0.6,4.375,0.9
	c1.282,0.3,2.392,0.75,3.325,1.35c0.933,0.6,1.675,1.434,2.225,2.5c0.551,1.067,0.892,2.5,1.025,4.3c0.166,2.1,0.3,3.784,0.4,5.05
	c0.1,1.267,0.24,2.25,0.424,2.95c0.184,0.7,0.434,1.167,0.75,1.4c0.316,0.233,0.775,0.35,1.375,0.35c0.667,0,1.217-0.191,1.65-0.575
	c0.434-0.383,0.816-0.741,1.15-1.075l0.5,0.45c-0.334,0.333-0.658,0.642-0.975,0.925c-0.318,0.283-0.684,0.525-1.101,0.725
	c-0.417,0.2-0.925,0.358-1.524,0.475c-0.601,0.117-1.351,0.175-2.25,0.175c-1.834,0-3.268-0.292-4.301-0.875
	c-1.033-0.583-1.8-1.308-2.3-2.175c-0.5-0.866-0.809-1.808-0.925-2.825c-0.117-1.017-0.192-1.975-0.225-2.875
	c-0.068-1.367-0.159-2.691-0.275-3.975c-0.117-1.283-0.393-2.425-0.825-3.425c-0.434-1-1.083-1.8-1.95-2.4
	c-0.867-0.6-2.084-0.9-3.65-0.9h-3.299v18.05h4.6v0.7h-16.45v-0.7h4.601v-34.2H239.856z M253.756,59.184c1.5,0,2.684-0.2,3.551-0.6
	c0.866-0.4,1.516-0.941,1.949-1.625c0.434-0.683,0.709-1.458,0.826-2.325c0.115-0.866,0.174-1.75,0.174-2.65
	c0-1.466-0.1-2.725-0.299-3.775c-0.201-1.05-0.534-1.917-1-2.6c-0.468-0.683-1.109-1.191-1.926-1.525
	c-0.816-0.333-1.858-0.5-3.125-0.5c-0.367,0-0.733,0.017-1.1,0.05c-0.367,0.034-0.734,0.067-1.1,0.1v15.45H253.756z"/>
<path fill="#FFFFFF" d="M277.146,67.534c0.066,0.4,0.183,0.925,0.35,1.575c0.166,0.65,0.408,1.35,0.725,2.1
	c0.316,0.75,0.717,1.517,1.2,2.3c0.483,0.784,1.075,1.509,1.775,2.175c0.767,0.768,1.508,1.35,2.225,1.75
	c0.717,0.4,1.4,0.692,2.05,0.875c0.65,0.184,1.267,0.284,1.851,0.3c0.583,0.017,1.125,0.025,1.625,0.025
	c1.767,0,3.216-0.275,4.35-0.825c1.133-0.55,2.025-1.225,2.675-2.025c0.65-0.8,1.108-1.641,1.375-2.525
	c0.267-0.883,0.4-1.658,0.4-2.325c0-1.232-0.292-2.25-0.875-3.05c-0.584-0.8-1.358-1.466-2.325-2c-0.967-0.533-2.067-0.983-3.3-1.35
	c-1.233-0.366-2.5-0.741-3.8-1.125c-1.3-0.383-2.567-0.833-3.8-1.35c-1.234-0.516-2.334-1.183-3.301-2
	c-0.967-0.816-1.742-1.825-2.324-3.025c-0.584-1.2-0.875-2.7-0.875-4.5c0-1.333,0.3-2.616,0.899-3.85
	c0.601-1.232,1.433-2.325,2.5-3.275c1.066-0.95,2.342-1.716,3.825-2.3c1.482-0.583,3.092-0.875,4.825-0.875
	c1.1,0,2.066,0.1,2.899,0.3c0.833,0.2,1.566,0.409,2.2,0.625c0.633,0.217,1.191,0.425,1.675,0.625c0.483,0.2,0.925,0.3,1.325,0.3
	c0.467,0,0.775-0.075,0.925-0.225c0.15-0.15,0.309-0.425,0.476-0.825h0.8v9.5h-0.65c-0.399-1.167-0.824-2.316-1.274-3.45
	c-0.45-1.133-1.025-2.158-1.726-3.075c-0.699-0.917-1.583-1.658-2.649-2.225c-1.067-0.566-2.417-0.85-4.05-0.85
	c-1.334,0-2.509,0.184-3.525,0.55c-1.018,0.367-1.875,0.85-2.575,1.45c-0.7,0.6-1.233,1.268-1.6,2
	c-0.367,0.734-0.55,1.484-0.55,2.25c0,1.168,0.308,2.134,0.925,2.9c0.616,0.767,1.425,1.425,2.425,1.975
	c1,0.55,2.142,1.025,3.425,1.425c1.283,0.4,2.601,0.817,3.95,1.25c1.35,0.434,2.666,0.909,3.95,1.425
	c1.283,0.517,2.425,1.175,3.425,1.975c1,0.8,1.808,1.767,2.425,2.9c0.616,1.134,0.925,2.534,0.925,4.2c0,1.633-0.333,3.184-1,4.65
	c-0.667,1.467-1.608,2.75-2.824,3.85c-1.218,1.1-2.668,1.975-4.351,2.625c-1.684,0.65-3.559,0.975-5.625,0.975
	c-1.033,0-2.059-0.1-3.075-0.3c-1.017-0.2-1.967-0.408-2.85-0.625c-0.884-0.216-1.667-0.425-2.35-0.625
	c-0.684-0.2-1.192-0.3-1.525-0.3c-0.467,0-0.8,0.075-1,0.225c-0.2,0.15-0.384,0.459-0.55,0.925h-0.8v-11.1H277.146z"/>
</svg>
