<?xml version="1.0" encoding="utf-8"?>
<!-- Generator: Adobe Illustrator 18.1.1, SVG Export Plug-In . SVG Version: 6.00 Build 0)  -->
<!DOCTYPE svg PUBLIC "-//W3C//DTD SVG 1.1//EN" "http://www.w3.org/Graphics/SVG/1.1/DTD/svg11.dtd">
<svg version="1.1" id="Layer_1" xmlns="http://www.w3.org/2000/svg" xmlns:xlink="http://www.w3.org/1999/xlink" x="0px" y="0px"
	 viewBox="4.6 692.8 1991.2 694.1" enable-background="new 4.6 692.8 1991.2 694.1" xml:space="preserve">
<g>
	<path fill="#FFFFFF" d="M146.8,718.5c0,26.9,0,52.6,0,78.4c0,53.9,0,107.8,0,161.7c0,17.6,0,17.6,17.7,21.8
		c1.6,0.4,3.1,1.3,4.2,3.8c-37.1,0-74.3,0-111.5,0c0.2-1.2,0.2-2.4,0.5-2.5c20.9-7.2,20.9-7.2,20.9-29.9c0-73.2,0-146.3,0-219.5
		c0-4.5,0-9,0-14.4c-45.1-2.1-60.6,27.8-73.2,61.5c0-21.5,0-42.9,0-64.5c92.9-5.8,185.3,9,276.6-13.7c0,42.5,0,83.4,0,126.4
		c3.4-3.9,6-6.9,8.7-9.8c17.7-19.3,38.6-32.3,65.6-30.5c32,2.1,48.4,21.2,48.8,55.5c0.3,35.4,0.1,70.8,0.1,106.3
		c0,25.3,0,25.3,22.6,34.9c-34.9,0-69.8,0-106.1,0c18.9-11.2,18.9-11.2,18.9-34.2c0-35,0.1-70.1,0-105.1c0-17.4-5.4-27-16.2-30
		c-11.8-3.2-33.4,5.4-39.5,16.4c-1.7,3.1-1.5,7.4-1.5,11.1c-0.1,39.3-0.1,78.5-0.1,117.8c0,16.7,0.1,16.8,16.6,20.3
		c1.8,0.4,3.6,0.8,5.2,3.4c-36.3,0-72.6,0-109.5,0c0.8-1.1,1.2-2.5,2-2.7c20.6-5.7,20.6-5.6,20.6-26.4c0-73.9,0-147.9,0-221.8
		c0-4.5,0-9.1,0-14.4C194,718.5,171.2,718.5,146.8,718.5z"/>
	<path fill="#FFFFFF" d="M1091.4,986.6c-15,0-29.6,0-44.9,0c-13.9-49.5-27.8-98.8-41.7-148.1c-0.8,0-1.6,0.1-2.3,0.1
		c-10.2,31.7-20.4,63.3-30.5,95c-4.8,15-9.8,30-14.2,45.1c-1.8,5.9-4.3,8.5-11.1,8.6c-33.7,0.5-33.6,0.7-44.4-31.3
		c-23.1-68.5-46.3-136.9-69.2-205.4c-5-15-12.5-27.7-27.1-35.8c38.5,0,77.1,0,115.7,0c-0.1,1,0.1,2-0.2,2.2
		c-21,10.8-23.6,16.8-16,39.2c18.7,55.3,37.5,110.6,56.2,166c1.1,3.2,2.4,6.4,4.4,11.7c2.2-5.4,3.9-9,5.1-12.7
		c9.3-28.5,18.7-57,27.4-85.6c1.7-5.5,1.8-12.1,0.4-17.7c-4.6-18.6-10.1-37.1-15.4-55.5c-9.1-31.7-5.9-29.3-30.6-47.5
		c39.3,0,77.4,0,118.2,0c-3.8,2.5-5.2,3.7-6.8,4.4c-14.4,7.2-18.3,13.6-14.4,29.6c8.5,35.1,17.8,70,26.9,105
		c6.5,25.3,13.2,50.6,19.8,75.9c0.7,2.5,1.7,5,3.5,9.9c8.4-29.2,16.2-55.9,23.9-82.7c9.2-32.1,18.4-64.3,27.7-96.4
		c6.8-23.8,1.3-33.1-23.3-38.6c-8.6-1.9-17.3-3-25.9-6.5c29.4,0,58.8,0,90,0c-2.5,2-3.6,3.3-4.8,3.6c-17.4,4.1-24.4,17.2-28.8,32.8
		c-12.2,42.9-24.5,85.7-36.7,128.6c-9.2,32.1-18.3,64.3-27.5,96.5C1093.7,980,1092.5,983.2,1091.4,986.6z"/>
	<path fill="#FFFFFF" d="M96.9,1193.2c0,32.4-0.4,63.5,0.5,94.6c0.1,4,5.9,8.6,10.1,11.5c3.1,2.2,7.8,2.3,11.6,5.4
		c-37.3,0-74.7,0-114.4,0c3.5-1.8,5.1-3,6.9-3.5c17.7-4.2,17.8-4.2,17.8-23.1c0-68.5,0-137,0-205.5c0-16.8,4.3-36-22.7-36.6
		c1.7-0.5,3.4-1.4,5.1-1.4c48.1,0.3,96.3-0.8,144.2,1.6c31.6,1.6,58,16,69.5,48.3c14.3,40.4-8.7,85.5-52.2,98.6
		c-21,6.3-43.8,6.5-65.7,9.4C104.5,1193,101.5,1192.9,96.9,1193.2z M97.7,1187.4c34.2,3.8,49.5-7.1,56.8-39.5
		c5.5-24.4,5-48.7-1-72.9c-7.5-30.4-23.3-40.4-55.8-35C97.7,1088.7,97.7,1137.6,97.7,1187.4z"/>
	<path fill="#FFFFFF" d="M1663.1,792.4c30.2,0,60.4,0,90.6,0c0.1,0.7,0.2,1.4,0.3,2c-3,1-6.4,1.4-9.1,3.1
		c-10.2,6.4-21.4,11.9-29.9,20.1c-10.2,9.8-17.7,22.2-26.9,33.1c-4,4.7-3.5,8.1-0.4,13.1c21.2,33.9,41.9,68.1,63.2,101.9
		c4.2,6.6,10.5,11.8,16.4,18.3c-2,0.4-4.3,1.4-6.6,1.4c-22.7,0.1-45.4-0.2-68.1,0.2c-6.5,0.1-9.4-2.3-12.2-7.8
		c-11.9-23.7-23.9-47.4-36.5-70.7c-3.8-7-9.5-13-14.4-19.4c-1.2,0.6-2.4,1.1-3.6,1.7c0,26.7-0.3,53.4,0.4,80.1
		c0.1,3.1,5.2,6.9,8.8,8.8c3.8,2.1,8.6,2.3,12.8,5.6c-36.4,0-72.7,0-111,0c2.4-1.7,3.3-2.9,4.4-3.1c20.8-3.3,19.8-5,19.8-24.8
		c0.1-70.4,0-140.9,0-211.3c0-22.2,0-22.2-20.4-29.4c-1-0.4-2-0.9-2.1-3.9c28.3-3.1,56.7-6.3,86.6-9.6c0,60.8,0,120.8,0,181.6
		c17.1,2,31.2-0.4,41.6-13.4c10.1-12.6,20.3-25.2,29.9-38.1c11.8-15.9,7.3-28.3-12-33.4c-7.1-1.9-14.6-2.5-22-3.7
		C1662.9,793.9,1663,793.1,1663.1,792.4z"/>
	<path fill="#FFFFFF" d="M455.2,1280.6c-4.3,4.5-7.2,7.9-10.5,11c-16.9,16.4-37.5,20.9-59.7,16.1c-17.4-3.7-27.5-15.9-30.6-33.6
		c-3.5-20,2.5-36.5,18.8-48.8c22.1-16.6,48.6-19.7,74.9-23.1c2.2-0.3,4.4-0.5,8.6-1c-0.9-17.5,0.1-35-3-51.7
		c-4.7-25.5-32.4-36.5-55.1-23.6c-15.8,8.9-17.2,22.8-3.3,34.1c6.8,5.5,16.6,9.9,11.7,20.8c-4.6,10.2-14.9,11.2-24.8,11
		c-19.3-0.5-28-12.8-21-31.2c10.7-28.5,33.3-43.5,61.7-50.1c24.6-5.7,49-3.8,71.3,9.3c17.7,10.4,26.3,26.3,26.3,46.9
		c0,35,0,70,0,105c0,19.4,2.9,21.2,20.8,13.6c1-0.4,2.2-0.4,3.4-0.6c-6,9.9-27.3,21.7-43.4,23.7c-6.1,0.7-12.3,0.9-18.4,0.6
		C465.6,1308.1,458.3,1301,455.2,1280.6z M456,1207.8c-16.9,0.3-28.8,7.5-33.2,21.3c-5.1,15.7-7.3,32.3,4.6,45.8
		c3.4,3.9,12.4,4.4,18.5,3.8c3.6-0.3,9.5-5.7,9.6-9C456.4,1249.1,456,1228.5,456,1207.8z"/>
	<path fill="#FFFFFF" d="M231.9,1305c25.7-11.1,25.7-11.1,25.7-38.4c0-67.3,0-134.7,0-202c0-20.6,1.2-26.2-20.3-28.4
		c-0.9-0.1-1.6-1.3-4.6-3.7c30.8-3.4,59.3-6.6,89.7-9.9c0,5.5,0,9.9,0,14.4c0,80.8,0,161.6,0,242.4c0,17.8,0,17.8,17.5,21.9
		c1.6,0.4,3.2,1.2,4.5,3.7C308,1305,271.7,1305,231.9,1305z"/>
	<path fill="#FFFFFF" d="M734.8,1305c0.9-1.8,1.1-2.8,1.6-3c21.4-7,21.4-7,21.4-29.6c0-68.5,0-137.1,0-205.6c0-4.6-0.6-9.2-0.5-13.8
		c0.4-9.3-3.5-14.5-13.2-15.2c-3.1-0.2-6.1-1.8-9.1-2.8c0.1-0.9,0.2-1.9,0.3-2.8c28.3-3.1,56.7-6.3,86.9-9.6c0,5.5,0,10,0,14.4
		c0,80.5,0,161,0,241.4c0,18.2,0,18.2,18,22.8c1.5,0.4,2.9,1.4,3.9,3.8C807.9,1305,771.7,1305,734.8,1305z"/>
	<path fill="#FFFFFF" d="M666.5,1256.9c15.1-40.6,28.8-77.7,42.5-114.7c3.5-9.6-1-16.2-9.4-19.4c-7.8-3-16.3-4.1-24.5-5.9
		c-2.6-0.6-5.3-1-7.7-3.7c25,0,50,0,75,0c-21.8,6.6-26.3,25.7-32.8,43.2c-16.6,44.7-32.2,89.7-50.2,133.8
		c-8.7,21.5-19.8,42.6-33.4,61.4c-17.3,23.8-42.4,36.4-72.7,35.4c-6.2-0.2-12.9-2.5-18.5-5.5c-9.6-5.2-10.9-14.4-8.1-24
		c2.7-9.1,12.4-15.3,21.8-12.8c6.3,1.7,12.7,5.4,17.7,9.8c21,18.7,55,9.9,63.3-17c0.8-2.5-0.2-6-1.3-8.7
		c-27.2-63.6-54.3-127.3-82.2-190.6c-4.1-9.2-12-16.8-18.1-25c35.7,0,73.2,0,110.8,0c-0.2,1.2-0.1,2.4-0.4,2.5
		c-21.2,8.3-23.1,12.5-14.8,33.4C637.4,1184,651.3,1218.8,666.5,1256.9z"/>
	<path fill="#FFFFFF" d="M1522.6,874.8c-35.7,0-71.8,0-109.3,0c-1.1,30.1,2.1,58.2,25.8,78.3c27.9,23.6,56.8,16.4,86.2-0.9
		c-1.7,2.4-3.2,5.1-5.2,7.3c-26.9,28.5-74.7,37.5-115.6,21.8c-33.8-13-54.3-45.7-56.6-86.2c-4.1-73.8,63.9-123.2,134.2-103.6
		C1517.7,801.4,1535.1,836.9,1522.6,874.8z M1412.9,870.7c17.7,0,34.1,0.2,50.5-0.2c2.2-0.1,6.3-3.1,6.3-4.8
		c0.4-18.3,1.2-36.6-0.4-54.8c-0.9-9.9-8.4-17.6-19-19.1c-10.7-1.5-18.4,4.8-23.6,13.5C1415,825,1413.4,847,1412.9,870.7z"/>
	<path fill="#FFFFFF" d="M1332.5,952c-0.7,1.6-1.1,3.4-2.2,4.6c-37.5,44.8-127.5,44.1-159.9-9.9c-21.8-36.4-19.5-89,6.8-121.6
		c26.9-33.2,75.1-46.8,115.9-32.5c33.4,11.7,46.7,39.7,37.9,82c-36.1,0-72.4,0-110.3,0c-0.8,31.8,2.5,61.2,28.9,81
		C1277.2,976,1304.8,969.3,1332.5,952z M1221,870.7c17.5,0,33.3,0.3,49-0.3c2.7-0.1,7.4-3.8,7.5-6c0.5-17.8,1.1-35.8-0.4-53.5
		c-0.9-10-8.4-17.8-18.9-19.2c-11.2-1.5-19.1,5.1-24.3,14.3C1222.8,825.8,1220.8,847.3,1221,870.7z"/>
	<path fill="#FFFFFF" d="M1849.3,922.8c1.8,4.3,3.5,8.6,5.3,12.9c10.8,25,27.2,44.1,55.5,48.3c8.2,1.2,17.9-0.6,25.6-4
		c14.7-6.5,19.1-25.7,7.7-38c-9.4-10.2-22-17.5-33.7-25.4c-13.6-9.2-28.8-16.5-41.4-26.9c-19.7-16.2-25.2-38.4-18.1-62.6
		c7-24,26.3-33.7,49.1-38c25.2-4.7,49.7-1.1,73.8,6.8c5.7,1.9,8.5,4.5,8.6,11.2c0.2,13.7,1.7,27.3,2.7,40.9c-1,0.4-2,0.7-3,1.1
		c-1.6-2.9-2.9-6.1-5-8.8c-10.8-13.8-20.3-29-33.1-40.6c-13.8-12.5-32.9-10.9-41.7-0.2c-9.3,11.2-6.2,29.7,8.7,41.8
		c10,8.2,21.7,14.4,32.7,21.4c9.1,5.8,18.6,10.9,27.3,17.1c20.9,14.9,29.1,35.7,24.1,60.5c-5,25.1-23.1,38.6-46.6,44.3
		c-30.7,7.4-61.1,4.2-90.6-6.7c-3.4-1.3-7-6.6-7.5-10.5c-1.9-14.6-2.7-29.3-3.9-43.9C1847.1,923.4,1848.2,923.1,1849.3,922.8z"/>
	<path fill="#FFFFFF" d="M560.8,923.3c2.3,5.4,4.4,10.9,6.9,16.2c11,23,27.1,40.4,53.5,44.4c7.3,1.1,15.5,0.1,22.5-2.3
		c16.8-5.7,23.1-25.6,11.3-39.5c-8-9.4-19.2-16.3-29.6-23.2c-13.1-8.7-27.8-15.1-40.4-24.4c-26.9-19.8-35-54.7-17.2-79.5
		c7.1-9.9,19.1-18.4,30.7-22.4c29.4-10.2,59.2-6.3,88,4.4c2.4,0.9,5.5,3.6,5.7,5.8c1.7,15.1,2.6,30.4,1.2,46.7
		c-1.9-3.2-3.5-6.7-5.7-9.7c-9.6-12.8-19.3-25.6-29.4-38c-2.1-2.6-5.6-4.1-8.6-5.7c-14.3-7.5-29.3-5.8-36.9,4.1
		c-7.4,9.5-6.5,26.6,4.8,36.8c11,9.9,24.2,17.4,36.6,25.7c11.1,7.5,23.6,13.5,33.4,22.3c32.6,29.1,24.2,79.2-16.3,95.4
		c-34.9,14.1-70.2,9.1-104.7-3.1c-2.3-0.8-5.2-4-5.5-6.3c-1.6-15.6-2.5-31.3-3.6-47C558.5,923.9,559.7,923.6,560.8,923.3z"/>
	<path fill="#FFFFFF" d="M974.3,1244.1c2.3,5.4,4.4,10.9,7,16.2c11,23,27.1,40.1,53.5,44.6c11.9,2,23.2-0.1,32.3-8.6
		c9.6-9,10.3-25,0.2-35.5c-8.1-8.4-18.5-14.9-28.4-21.3c-13.2-8.5-27.8-15.1-40.4-24.4c-26.8-19.8-34.8-54.7-17.1-79.5
		c6.9-9.6,18.5-18,29.7-22c29.7-10.7,59.8-6.7,89.1,4.1c2.3,0.9,5.4,3.6,5.6,5.8c1.6,15.1,2.6,30.3,3.8,45.5
		c-0.9,0.4-1.8,0.8-2.7,1.1c-1.9-3.3-3.4-6.8-5.7-9.7c-9.7-12.8-19.4-25.5-29.4-38c-2.1-2.6-5.6-4.1-8.6-5.6
		c-14.4-7.5-29.3-5.7-36.9,4.2c-7.4,9.5-6.4,26.6,4.9,36.8c11,9.9,24.2,17.4,36.6,25.7c11.1,7.5,23.6,13.5,33.4,22.3
		c32.5,29.1,24.1,79.2-16.4,95.4c-34.9,14-70.2,9.1-104.7-3.2c-2.3-0.8-5.2-4-5.4-6.3c-1.6-15.6-2.5-31.3-3.6-46.9
		C972.1,1244.7,973.2,1244.4,974.3,1244.1z"/>
	<path fill="#FFFFFF" d="M1264.7,1284.3c-21.3,22.2-67.6,31.7-92.5,20.6c-16.5-7.3-22.6-21.2-22.6-38.2
		c-0.1-45.4-0.1-90.9-0.1-136.3c0-4.2,0-8.3,0-13.6c-7.6,0-14.2,0-20.7,0c29.2-4.3,42.9-29.1,62.5-45.6c6.8-5.7,13-12.2,19.4-18.4
		c1,0.6,2,1.3,3.1,1.9c0,18.6,0,37.1,0,57.3c15.2,0,29.1,0,42.9,0c0,1.2,0.1,2.3,0.1,3.5c-13.7,0-27.4,0-41.9,0
		c-0.3,5.5-0.6,9.3-0.6,13c0,45.8-0.1,91.6,0,137.4c0,4.6,0.1,9.3,1.2,13.7c3.4,14.2,12.9,19.7,26.7,15
		C1248.9,1292.4,1255.2,1288.7,1264.7,1284.3z"/>
	<path fill="#FFFFFF" d="M939.3,1107.5c0,5.5,0,9.6,0,13.8c0,52.7,0,105.4,0,158.1c0,17.8,0,17.8,17.5,21.9c1.6,0.4,3.2,1.2,4.5,3.7
		c-36.3,0-72.6,0-112.1,0c4.2-2.1,5.8-3.3,7.6-3.7c17.7-4.2,17.8-4.2,17.8-22c0.1-41.2,0-82.3,0-123.5c0-26.9,0-26.9-22.9-38.3
		C880.2,1114.2,908.7,1111,939.3,1107.5z"/>
	<path fill="#FFFFFF" d="M436.9,796.7c30.2-3.4,58.7-6.6,88.8-9.9c0,4.9,0,9.1,0,13.2c0,52.7,0,105.4,0,158.1
		c0,18.2,0,18.2,18.2,22.5c1.4,0.3,2.7,1,3.9,3.4c-36.4,0-72.8,0-109.2,0c-0.3-0.6-0.6-1.1-1-1.7c0.9-0.5,1.9-1.3,2.8-1.4
		c23-2.4,20.5-8,20.5-26.6c0.1-42.3,0.1-84.6,0-127c0-20.4-0.1-20.4-19.5-26.6C440.1,800.3,439.2,798.7,436.9,796.7z"/>
	<path fill="#FFFFFF" d="M904.5,1100.6c-8.1-2.8-17-4.5-24.3-8.8c-17.4-10.4-16.7-38.8,0.6-49.7c11.9-7.5,24.9-8,37.7-4.7
		c17.4,4.4,25,16.5,23.4,34.4c-1.3,14.7-13,25.2-29.9,26.8c-2.3,0.2-4.6,0-6.9,0C904.9,1099.3,904.7,1099.9,904.5,1100.6z"/>
	<path fill="#FFFFFF" d="M491.4,710.3c25.4-0.2,39.1,13.1,36.9,35.8c-0.9,9.9-5.7,17.3-14.7,21.9c-11.5,5.8-23.5,6.7-35.7,3.2
		c-17.2-5-25.2-16.3-23.6-33.1c1.5-15.7,13.1-26.5,30.2-27.8C486.7,710.2,489.1,710.3,491.4,710.3z"/>
	<path fill="#FFFFFF" d="M1800.9,770.7c-1.1-3.4-2.4-6.7-3.3-10.2c-4.3-16.3-9.1-32.5-12.2-49c-1-5.3,1.5-15.3,5-16.6
		c7-2.7,16.3-2.8,23.4-0.3c3.5,1.2,6.5,11.2,5.5,16.3c-3.9,20-9.5,39.8-14.5,59.6C1803.5,770.6,1802.2,770.6,1800.9,770.7z"/>
</g>
</svg>
