<?xml version="1.0" encoding="utf-8"?>
<!-- Generator: Adobe Illustrator 17.1.0, SVG Export Plug-In . SVG Version: 6.00 Build 0)  -->
<!DOCTYPE svg PUBLIC "-//W3C//DTD SVG 1.1//EN" "http://www.w3.org/Graphics/SVG/1.1/DTD/svg11.dtd">
<svg version="1.1" id="Layer_1" xmlns="http://www.w3.org/2000/svg" xmlns:xlink="http://www.w3.org/1999/xlink" x="0px" y="0px"
	 viewBox="0 0 663.455 89.167" enable-background="new 0 0 663.455 89.167" xml:space="preserve">
<g>
	<path fill="#FFFFFF" d="M43.516,57.392H21.348l-4.27,10.756H0L23.811,6.24h17.57L64.7,68.148H47.54L43.516,57.392z M39.165,45.076
		l-6.568-19.706h-0.164l-6.651,19.706H39.165z"/>
	<path fill="#FFFFFF" d="M71.596,26.028l10.509,22.825l10.592-22.825h8.867l10.592,22.825l10.592-22.825h16.503l-22.004,42.12
		h-9.688L97.131,45.076L86.704,68.148h-9.688l-22.004-42.12H71.596z"/>
	<path fill="#FFFFFF" d="M182.996,48.032v1.56h-31.447c0,6.24,3.12,9.36,9.36,9.36c3.229,0,5.61-1.286,7.143-3.859h14.369
		c-1.149,4.708-3.723,8.292-7.718,10.756c-3.996,2.463-8.567,3.695-13.711,3.695c-7.226,0-13.096-1.971-17.612-5.912
		c-4.516-3.941-6.774-9.442-6.774-16.503c0-6.951,2.148-12.439,6.445-16.462c4.296-4.023,9.921-6.035,16.873-6.035
		c7.279,0,12.944,2.094,16.996,6.281C180.97,35.1,182.996,40.807,182.996,48.032z M151.796,40.971h17.324
		c-0.384-1.97-1.369-3.571-2.956-4.803c-1.588-1.231-3.421-1.847-5.501-1.847c-2.245,0-4.174,0.575-5.789,1.724
		C153.259,37.194,152.233,38.836,151.796,40.971z"/>
	<path fill="#FFFFFF" d="M220.221,27.341l-5.008,9.524c-2.574-1.368-5.255-2.053-8.046-2.053c-1.096,0-2.149,0.246-3.161,0.739
		c-1.014,0.493-1.519,1.205-1.519,2.135c0,0.384,0.082,0.739,0.247,1.067c0.164,0.329,0.411,0.616,0.739,0.862
		c0.329,0.246,0.657,0.452,0.985,0.616s0.752,0.315,1.272,0.452c0.52,0.137,0.93,0.233,1.232,0.287
		c0.3,0.055,0.71,0.124,1.231,0.206c0.52,0.082,0.862,0.151,1.026,0.205c8.155,1.642,12.234,5.803,12.234,12.48
		c0,5.146-1.958,9.046-5.871,11.7c-3.914,2.654-8.58,3.982-13.999,3.982c-6.076,0-11.741-1.614-16.996-4.844l5.419-10.428
		c1.642,1.149,3.584,2.149,5.83,2.997c2.244,0.849,4.241,1.272,5.994,1.272c1.149,0,2.217-0.273,3.202-0.821
		c0.985-0.547,1.478-1.341,1.478-2.381c0-0.602-0.151-1.135-0.452-1.601c-0.301-0.464-0.808-0.848-1.519-1.149
		c-0.712-0.3-1.383-0.534-2.012-0.698c-0.63-0.165-1.519-0.37-2.668-0.616c-1.149-0.247-2.052-0.452-2.709-0.616
		c-2.847-0.766-5.119-1.956-6.814-3.571c-1.697-1.614-2.545-4.118-2.545-7.513c0-3.284,0.93-6.089,2.792-8.416
		c1.86-2.326,4.146-3.995,6.856-5.008c2.709-1.012,5.678-1.519,8.908-1.519C211.6,24.632,216.225,25.535,220.221,27.341z"/>
	<path fill="#FFFFFF" d="M231.69,30.708c4.898-4.05,10.906-6.076,18.022-6.076c7.115,0,13.123,2.026,18.022,6.076
		c4.898,4.052,7.349,9.524,7.349,16.421s-2.45,12.357-7.349,16.38c-4.899,4.023-10.907,6.035-18.022,6.035
		c-7.062,0-13.055-2.012-17.981-6.035c-4.926-4.023-7.39-9.483-7.39-16.38S226.791,34.759,231.69,30.708z M256.733,40.355
		c-1.725-1.833-4.064-2.75-7.02-2.75c-2.956,0-5.296,0.917-7.02,2.75c-1.725,1.834-2.586,4.093-2.586,6.774
		c0,2.738,0.862,4.996,2.586,6.773c1.724,1.78,4.064,2.668,7.02,2.668c2.956,0,5.295-0.889,7.02-2.668
		c1.724-1.778,2.586-4.036,2.586-6.773C259.319,44.448,258.457,42.189,256.733,40.355z"/>
	<path fill="#FFFFFF" d="M295.223,26.028v5.254h0.164c3.338-4.434,7.772-6.65,13.301-6.65c6.678,0,11.467,2.683,14.369,8.046
		c1.422-2.572,3.42-4.557,5.994-5.953c2.572-1.396,5.336-2.094,8.293-2.094c9.578,0,14.367,5.556,14.367,16.667v26.849h-14.943
		V48.032c0-1.368-0.014-2.353-0.041-2.956c-0.027-0.602-0.137-1.56-0.328-2.874c-0.191-1.314-0.479-2.299-0.861-2.956
		c-0.385-0.657-1-1.272-1.848-1.847c-0.85-0.575-1.875-0.862-3.08-0.862c-1.312,0-2.436,0.261-3.365,0.78
		c-0.932,0.521-1.643,1.123-2.135,1.806c-0.492,0.685-0.861,1.601-1.109,2.75c-0.246,1.149-0.396,2.149-0.451,2.997
		c-0.055,0.849-0.082,1.902-0.082,3.161v20.116h-14.943V48.032c0-1.095-0.014-1.942-0.041-2.545
		c-0.028-0.602-0.096-1.45-0.206-2.545c-0.11-1.094-0.301-1.971-0.575-2.627c-0.274-0.657-0.644-1.34-1.108-2.053
		c-0.466-0.71-1.108-1.231-1.929-1.56c-0.821-0.328-1.752-0.492-2.792-0.492c-1.04,0-1.97,0.164-2.792,0.492
		c-0.821,0.329-1.465,0.85-1.929,1.56c-0.466,0.712-0.835,1.396-1.108,2.053c-0.275,0.657-0.466,1.533-0.575,2.627
		c-0.11,1.096-0.178,1.944-0.205,2.545c-0.028,0.603-0.041,1.451-0.041,2.545v20.116H280.28v-42.12H295.223z"/>
	<path fill="#FFFFFF" d="M403.414,48.032v1.56h-31.446c0,6.24,3.119,9.36,9.359,9.36c3.229,0,5.61-1.286,7.144-3.859h14.368
		c-1.149,4.708-3.723,8.292-7.718,10.756c-3.996,2.463-8.567,3.695-13.712,3.695c-7.225,0-13.096-1.971-17.611-5.912
		c-4.516-3.941-6.773-9.442-6.773-16.503c0-6.951,2.147-12.439,6.445-16.462c4.296-4.023,9.92-6.035,16.872-6.035
		c7.279,0,12.945,2.094,16.996,6.281C401.388,35.1,403.414,40.807,403.414,48.032z M372.213,40.971h17.324
		c-0.384-1.97-1.369-3.571-2.956-4.803c-1.588-1.231-3.421-1.847-5.501-1.847c-2.245,0-4.175,0.575-5.788,1.724
		C373.677,37.194,372.651,38.836,372.213,40.971z"/>
	<path fill="#FFFFFF" d="M429.251,19.87v48.278h-16.093V19.87h-13.302V6.24h42.695V19.87H429.251z"/>
	<path fill="#FFFFFF" d="M448.053,0h14.942v31.365h0.165c3.393-4.488,7.882-6.733,13.465-6.733c5.2,0,9.141,1.588,11.823,4.762
		c2.682,3.175,4.023,7.5,4.023,12.973v25.781h-14.943V46.554c0-3.065-0.451-5.501-1.354-7.308c-0.903-1.806-2.697-2.709-5.378-2.709
		c-2.738,0-4.722,0.958-5.953,2.874c-1.231,1.917-1.848,4.298-1.848,7.144v21.594h-14.942V0z"/>
	<path fill="#FFFFFF" d="M501.783,3.941c1.643-1.642,3.612-2.463,5.912-2.463c2.299,0,4.27,0.821,5.911,2.463
		c1.643,1.643,2.463,3.613,2.463,5.912c0,2.299-0.82,4.27-2.463,5.912c-1.642,1.643-3.612,2.463-5.911,2.463
		c-2.3,0-4.27-0.821-5.912-2.463c-1.642-1.642-2.463-3.612-2.463-5.912C499.32,7.554,500.141,5.583,501.783,3.941z M515.166,26.028
		v42.12h-14.942v-42.12H515.166z"/>
	<path fill="#FFFFFF" d="M538.211,26.028v5.419h0.165c3.064-4.543,7.554-6.815,13.465-6.815c5.419,0,9.414,1.547,11.987,4.639
		c2.572,3.093,3.859,7.376,3.859,12.85v26.027h-14.943V47.622c0-0.109,0-0.534,0-1.273c0-0.739,0-1.231,0-1.478
		c0-0.247-0.014-0.711-0.041-1.396c-0.028-0.684-0.082-1.19-0.164-1.519c-0.082-0.328-0.205-0.792-0.37-1.396
		c-0.164-0.602-0.356-1.04-0.574-1.314c-0.22-0.273-0.507-0.616-0.862-1.026c-0.356-0.41-0.753-0.71-1.19-0.903
		c-0.438-0.191-0.958-0.37-1.56-0.534c-0.604-0.165-1.26-0.247-1.971-0.247c-5.201,0-7.801,3.257-7.801,9.771v21.84h-14.942v-42.12
		H538.211z"/>
	<path fill="#FFFFFF" d="M622.05,26.028v38.015c0,8.704-2.067,15.066-6.199,19.09c-4.134,4.023-10.195,6.035-18.187,6.035
		c-3.448,0-6.855-0.548-10.223-1.643c-3.366-1.096-6.391-2.902-9.072-5.419c-2.683-2.519-4.242-5.529-4.68-9.032h16.749
		c0.383,1.423,1.313,2.49,2.792,3.202c1.313,0.657,2.736,0.985,4.27,0.985c3.722,0,6.253-1.041,7.595-3.12
		c1.341-2.081,2.012-5.063,2.012-8.95v-1.97c-3.832,3.832-8.293,5.748-13.384,5.748c-6.075,0-11.057-2.053-14.943-6.158
		s-5.829-9.223-5.829-15.354c0-6.293,2.024-11.671,6.076-16.134c4.05-4.46,9.223-6.691,15.518-6.691c5.528,0,9.66,1.943,12.398,5.83
		h0.164v-4.434H622.05z M605.013,40.027c-1.725-1.833-4.064-2.75-7.021-2.75s-5.296,0.917-7.02,2.75
		c-1.725,1.834-2.587,4.092-2.587,6.773c0,2.738,0.862,4.996,2.587,6.774c1.724,1.779,4.063,2.668,7.02,2.668
		s5.296-0.889,7.021-2.668c1.724-1.778,2.586-4.036,2.586-6.774C607.599,44.119,606.737,41.861,605.013,40.027z"/>
	<path fill="#FFFFFF" d="M662.223,27.341l-5.009,9.524c-2.573-1.368-5.254-2.053-8.046-2.053c-1.096,0-2.148,0.246-3.161,0.739
		c-1.014,0.493-1.519,1.205-1.519,2.135c0,0.384,0.082,0.739,0.246,1.067c0.164,0.329,0.41,0.616,0.739,0.862
		c0.328,0.246,0.656,0.452,0.984,0.616c0.329,0.164,0.752,0.315,1.273,0.452c0.52,0.137,0.93,0.233,1.231,0.287
		c0.3,0.055,0.711,0.124,1.231,0.206c0.52,0.082,0.862,0.151,1.026,0.205c8.155,1.642,12.233,5.803,12.233,12.48
		c0,5.146-1.957,9.046-5.87,11.7c-3.914,2.654-8.58,3.982-13.999,3.982c-6.076,0-11.741-1.614-16.996-4.844l5.419-10.428
		c1.643,1.149,3.584,2.149,5.829,2.997c2.244,0.849,4.242,1.272,5.994,1.272c1.149,0,2.217-0.273,3.202-0.821
		c0.985-0.547,1.478-1.341,1.478-2.381c0-0.602-0.151-1.135-0.451-1.601c-0.302-0.464-0.809-0.848-1.519-1.149
		c-0.713-0.3-1.384-0.534-2.012-0.698c-0.63-0.165-1.52-0.37-2.669-0.616c-1.149-0.247-2.053-0.452-2.709-0.616
		c-2.847-0.766-5.119-1.956-6.815-3.571c-1.697-1.614-2.545-4.118-2.545-7.513c0-3.284,0.93-6.089,2.792-8.416
		c1.859-2.326,4.146-3.995,6.855-5.008c2.709-1.012,5.678-1.519,8.908-1.519C653.602,24.632,658.227,25.535,662.223,27.341z"/>
</g>
</svg>
